<svg version="1.1" xmlns="http://www.w3.org/2000/svg" xmlns:xlink="http://www.w3.org/1999/xlink" width="800" height="800"><defs/><g transform="scale(2,2)"><g id="background-b8ed0c00"><rect fill="white" stroke="none" x="0" y="0" width="400" height="400" class="dcg-svg-background"/></g><g id="graphpaper-b8ed0c00"><g id="grid-b8ed0c00"><g><path fill="none" stroke="rgb(0,0,0)" class="dcg-svg-minor-gridline" paint-order="fill stroke markers" d=" M 11.5 0 L 11.5 400" stroke-opacity="0.3" stroke-miterlimit="10" stroke-dasharray=""/><path fill="none" stroke="rgb(0,0,0)" class="dcg-svg-minor-gridline" paint-order="fill stroke markers" d=" M 47.5 0 L 47.5 400" stroke-opacity="0.3" stroke-miterlimit="10" stroke-dasharray=""/><path fill="none" stroke="rgb(0,0,0)" class="dcg-svg-minor-gridline" paint-order="fill stroke markers" d=" M 83.5 0 L 83.5 400" stroke-opacity="0.3" stroke-miterlimit="10" stroke-dasharray=""/><path fill="none" stroke="rgb(0,0,0)" class="dcg-svg-minor-gridline" paint-order="fill stroke markers" d=" M 118.5 0 L 118.5 400" stroke-opacity="0.3" stroke-miterlimit="10" stroke-dasharray=""/><path fill="none" stroke="rgb(0,0,0)" class="dcg-svg-minor-gridline" paint-order="fill stroke markers" d=" M 154.5 0 L 154.5 400" stroke-opacity="0.3" stroke-miterlimit="10" stroke-dasharray=""/><path fill="none" stroke="rgb(0,0,0)" class="dcg-svg-minor-gridline" paint-order="fill stroke markers" d=" M 226.5 0 L 226.5 400" stroke-opacity="0.3" stroke-miterlimit="10" stroke-dasharray=""/><path fill="none" stroke="rgb(0,0,0)" class="dcg-svg-minor-gridline" paint-order="fill stroke markers" d=" M 261.5 0 L 261.5 400" stroke-opacity="0.3" stroke-miterlimit="10" stroke-dasharray=""/><path fill="none" stroke="rgb(0,0,0)" class="dcg-svg-minor-gridline" paint-order="fill stroke markers" d=" M 297.5 0 L 297.5 400" stroke-opacity="0.3" stroke-miterlimit="10" stroke-dasharray=""/><path fill="none" stroke="rgb(0,0,0)" class="dcg-svg-minor-gridline" paint-order="fill stroke markers" d=" M 333.5 0 L 333.5 400" stroke-opacity="0.3" stroke-miterlimit="10" stroke-dasharray=""/><path fill="none" stroke="rgb(0,0,0)" class="dcg-svg-minor-gridline" paint-order="fill stroke markers" d=" M 369.5 0 L 369.5 400" stroke-opacity="0.3" stroke-miterlimit="10" stroke-dasharray=""/><path fill="none" stroke="rgb(0,0,0)" class="dcg-svg-minor-gridline" paint-order="fill stroke markers" d=" M 0 393.5 L 400 393.5" stroke-opacity="0.3" stroke-miterlimit="10" stroke-dasharray=""/><path fill="none" stroke="rgb(0,0,0)" class="dcg-svg-minor-gridline" paint-order="fill stroke markers" d=" M 0 357.5 L 400 357.5" stroke-opacity="0.3" stroke-miterlimit="10" stroke-dasharray=""/><path fill="none" stroke="rgb(0,0,0)" class="dcg-svg-minor-gridline" paint-order="fill stroke markers" d=" M 0 321.5 L 400 321.5" stroke-opacity="0.3" stroke-miterlimit="10" stroke-dasharray=""/><path fill="none" stroke="rgb(0,0,0)" class="dcg-svg-minor-gridline" paint-order="fill stroke markers" d=" M 0 285.5 L 400 285.5" stroke-opacity="0.3" stroke-miterlimit="10" stroke-dasharray=""/><path fill="none" stroke="rgb(0,0,0)" class="dcg-svg-minor-gridline" paint-order="fill stroke markers" d=" M 0 214.5 L 400 214.5" stroke-opacity="0.3" stroke-miterlimit="10" stroke-dasharray=""/><path fill="none" stroke="rgb(0,0,0)" class="dcg-svg-minor-gridline" paint-order="fill stroke markers" d=" M 0 178.5 L 400 178.5" stroke-opacity="0.3" stroke-miterlimit="10" stroke-dasharray=""/><path fill="none" stroke="rgb(0,0,0)" class="dcg-svg-minor-gridline" paint-order="fill stroke markers" d=" M 0 143.5 L 400 143.5" stroke-opacity="0.3" stroke-miterlimit="10" stroke-dasharray=""/><path fill="none" stroke="rgb(0,0,0)" class="dcg-svg-minor-gridline" paint-order="fill stroke markers" d=" M 0 107.5 L 400 107.5" stroke-opacity="0.3" stroke-miterlimit="10" stroke-dasharray=""/><path fill="none" stroke="rgb(0,0,0)" class="dcg-svg-minor-gridline" paint-order="fill stroke markers" d=" M 0 71.5 L 400 71.5" stroke-opacity="0.3" stroke-miterlimit="10" stroke-dasharray=""/><path fill="none" stroke="rgb(0,0,0)" class="dcg-svg-minor-gridline" paint-order="fill stroke markers" d=" M 0 35.5 L 400 35.5" stroke-opacity="0.3" stroke-miterlimit="10" stroke-dasharray=""/><path fill="none" stroke="rgb(0,0,0)" class="dcg-svg-major-gridline" paint-order="fill stroke markers" d=" M 47.5 0 L 47.5 400" stroke-opacity="0.4285714285714285" stroke-miterlimit="10" stroke-dasharray=""/><path fill="none" stroke="rgb(0,0,0)" class="dcg-svg-major-gridline" paint-order="fill stroke markers" d=" M 333.5 0 L 333.5 400" stroke-opacity="0.4285714285714285" stroke-miterlimit="10" stroke-dasharray=""/><path fill="none" stroke="rgb(0,0,0)" class="dcg-svg-major-gridline" paint-order="fill stroke markers" d=" M 0 393.5 L 400 393.5" stroke-opacity="0.4285714285714285" stroke-miterlimit="10" stroke-dasharray=""/><path fill="none" stroke="rgb(0,0,0)" class="dcg-svg-major-gridline" paint-order="fill stroke markers" d=" M 0 107.5 L 400 107.5" stroke-opacity="0.4285714285714285" stroke-miterlimit="10" stroke-dasharray=""/></g></g><g id="axis-b8ed0c00"><g id="yaxis-b8ed0c00"><title>Y axis</title><g><path fill="none" stroke="rgb(0,0,0)" class="dcg-svg-axis-line" paint-order="fill stroke markers" d=" M 190 0 L 190 400" stroke-opacity="0.9" stroke-miterlimit="10" stroke-width="2" stroke-dasharray=""/></g></g><g id="xaxis-b8ed0c00"><title>X axis</title><g><path fill="none" stroke="rgb(0,0,0)" class="dcg-svg-axis-line" paint-order="fill stroke markers" d=" M 0 250 L 400 250" stroke-opacity="0.9" stroke-miterlimit="10" stroke-width="2" stroke-dasharray=""/></g></g><g><g class="dcg-svg-axis-value"><text fill="none" stroke="#ffffff" font-family="Arial" font-size="17px" font-style="normal" font-weight="normal" text-decoration="normal" x="180.69116038175966" y="268.3473820719458" text-anchor="middle" stroke-miterlimit="2" stroke-width="3" stroke-dasharray="">0</text><text fill="#000000" stroke="none" font-family="Arial" font-size="17px" font-style="normal" font-weight="normal" text-decoration="normal" x="180.69116038175966" y="268.3473820719458" text-anchor="middle">0</text></g><g class="dcg-svg-axis-value"><text fill="none" stroke="#ffffff" font-family="Arial" font-size="17px" font-style="normal" font-weight="normal" text-decoration="normal" x="44.709118355795226" y="268.3473820719458" text-anchor="middle" stroke-miterlimit="2" stroke-width="3" stroke-dasharray="">-2</text><text fill="#000000" stroke="none" font-family="Arial" font-size="17px" font-style="normal" font-weight="normal" text-decoration="normal" x="44.709118355795226" y="268.3473820719458" text-anchor="middle">-2</text></g><g class="dcg-svg-axis-value"><text fill="none" stroke="#ffffff" font-family="Arial" font-size="17px" font-style="normal" font-weight="normal" text-decoration="normal" x="333.2972258452241" y="268.3473820719458" text-anchor="middle" stroke-miterlimit="2" stroke-width="3" stroke-dasharray="">2</text><text fill="#000000" stroke="none" font-family="Arial" font-size="17px" font-style="normal" font-weight="normal" text-decoration="normal" x="333.2972258452241" y="268.3473820719458" text-anchor="middle">2</text></g><g class="dcg-svg-axis-value dcg-svg-offcenter-axis-value"><text fill="none" stroke="#ffffff" font-family="Arial" font-size="17px" font-style="normal" font-weight="normal" text-decoration="normal" x="177.86059397550966" y="393.124" text-anchor="middle" stroke-miterlimit="2" stroke-width="3" stroke-dasharray="">-2</text><text fill="#000000" stroke="none" font-family="Arial" font-size="17px" font-style="normal" font-weight="normal" text-decoration="normal" x="177.86059397550966" y="393.124" text-anchor="middle">-2</text></g><g class="dcg-svg-axis-value"><text fill="none" stroke="#ffffff" font-family="Arial" font-size="17px" font-style="normal" font-weight="normal" text-decoration="normal" x="180.69116038175966" y="111.96861153035627" text-anchor="middle" stroke-miterlimit="2" stroke-width="3" stroke-dasharray="">2</text><text fill="#000000" stroke="none" font-family="Arial" font-size="17px" font-style="normal" font-weight="normal" text-decoration="normal" x="180.69116038175966" y="111.96861153035627" text-anchor="middle">2</text></g></g></g></g><g id="expressions-b8ed0c00"><g id="sketch-b8ed0c00"><title>表达式1</title><path fill="#c74440" stroke="none" paint-order="stroke fill markers" d="" fill-opacity="0.4"/><g><path fill="none" stroke="#c74440" class="dcg-svg-curve" paint-order="fill stroke markers" d=" M 118.97907003283994 362.4401060437956 L 118.97907003283994 362.4401060437956 L 119.140625 357.63474650100216 L 119.53125 353.5521006955451 L 120.11718750000001 349.67114216079176 L 120.8984375 345.8427047673248 L 121.97265625 341.6858067139616 L 123.2421875 337.6355634811577 L 124.8046875 333.3897651013817 L 126.66015625 329.0078663786988 L 128.90625 324.32833121984675 L 131.54296875 319.4244336262223 L 134.66796875 314.1821455970901 L 138.28125 308.6639820825826 L 142.578125 302.64240596079156 L 147.65625 296.068007577645 L 153.41796875 289.11694427233715 L 160.15625 281.4726307910794 L 168.1640625 272.8543971711553 L 178.3203125 262.3801109917257 L 197.16796875 243.46378675756105 L 210.44921875 229.92041244239942 L 219.3359375 220.45158832320732 L 226.46484375 212.43999302146355 L 232.51953125 205.20055794018953 L 237.79296875 198.42912624907143 L 242.3828125 192.03513819835095 L 246.19140625 186.22868117884573 L 249.4140625 180.80979191725788 L 252.1484375 175.68799216523752 L 254.39453125 170.9528377147609 L 256.25 166.50137898245413 L 257.8125 162.16306751302636 L 259.08203125 157.98663670609562 L 260.05859375 154.07403427515436 L 260.83984375 150.0812965030102 L 261.328125 146.71176167555427 L 261.62109375 143.82428603181387 L 261.81640625 140.4398982627109 L 261.85784057442936 138.00665810009593" stroke-linecap="round" stroke-linejoin="round" stroke-miterlimit="10" stroke-width="3.5" stroke-dasharray=""/></g></g><g id="sketch-b8ed0c00"><title>表达式2</title><path fill="#2d70b3" stroke="none" paint-order="stroke fill markers" d="" fill-opacity="0.4"/><g><path fill="none" stroke="#2d70b3" class="dcg-svg-curve" paint-order="fill stroke markers" d=" M 118.97907003283994 25.78993412824613 L 118.97907003283994 25.78993412824613 L 119.140625 30.59529367103957 L 119.53125 34.67793947649659 L 120.11718750000001 38.55889801124991 L 120.8984375 42.38733540471688 L 121.97265625 46.54423345808007 L 123.2421875 50.594476690883994 L 124.8046875 54.84027507065997 L 126.66015625 59.222173793342904 L 128.90625 63.901708952194895 L 131.54296875 68.80560654581939 L 134.66796875 74.04789457495164 L 138.28125 79.56605808945912 L 142.578125 85.5876342112501 L 147.65625 92.16203259439669 L 153.41796875 99.11309589970455 L 160.15625 106.75740938096232 L 168.1640625 115.37564300088641 L 178.3203125 125.84992918031598 L 197.16796875 144.76625341448067 L 210.44921875 158.30962772964227 L 219.3359375 167.77845184883438 L 226.46484375 175.79004715057818 L 232.51953125 183.02948223185217 L 237.79296875 189.80091392297027 L 242.3828125 196.19490197369078 L 246.19140625 202.00135899319596 L 249.4140625 207.42024825478381 L 252.1484375 212.54204800680415 L 254.39453125 217.27720245728082 L 256.25 221.7286611895876 L 257.8125 226.06697265901536 L 259.08203125 230.2434034659461 L 260.05859375 234.15600589688734 L 260.83984375 238.14874366903152 L 261.328125 241.51827849648745 L 261.62109375 244.40575414022783 L 261.81640625 247.7901419093308 L 261.85784057442936 250.22338207194576" stroke-linecap="round" stroke-linejoin="round" stroke-miterlimit="10" stroke-width="3.5" stroke-dasharray=""/></g></g><g id="sketch-b8ed0c00"><title>表达式3</title><path fill="#348543" stroke="none" paint-order="stroke fill markers" d="" fill-opacity="0.4"/><g><path fill="none" stroke="#348543" class="dcg-svg-curve" paint-order="fill stroke markers" d=" M 0 336.79907238176617 L 0 336.79907238176617 L 14.74609375 334.84758656642134 L 28.12499999999997 332.81682912604265 L 40.33203125 330.7028440715025 L 51.46484374999997 328.514767063807 L 61.71875 326.23894719793077 L 71.2890625 323.8497376962415 L 80.17578124999999 321.363775207536 L 88.4765625 318.77257804644745 L 96.28906249999999 316.0613889883155 L 103.7109375 313.2074776583585 L 110.74218749999999 310.2218513641049 L 117.48046875 307.07324051596237 L 123.92578125 303.7707831111053 L 130.17578125 300.27194509322754 L 136.328125 296.52049180604547 L 142.3828125 292.51259854619826 L 148.4375 288.17805351265883 L 154.58984375 283.43316422540704 L 160.9375 278.1834442585697 L 167.67578125 272.2413438486541 L 175.1953125 265.2221879580502 L 184.66796875 255.9614968155569 L 207.8125 233.1613265883909 L 215.4296875 226.1649055428111 L 222.265625 220.2652913156389 L 228.7109375 215.07222424291305 L 234.86328125 210.46484474753368 L 241.015625 206.19932225208004 L 247.16796875 202.2660964169617 L 253.41796875 198.59399930400724 L 259.765625 195.17659583752885 L 266.30859375 191.95752720164424 L 273.14453125 188.89414728699407 L 280.2734375 185.9936784997251 L 287.6953125 183.2590216332302 L 295.60546875 180.62780718551784 L 304.00390625 178.11512664862022 L 312.98828125 175.706013597793 L 322.55859375 173.41370404672656 L 332.91015625 171.2069402985536 L 344.140625 169.0853687075618 L 356.34765625 167.0506872530944 L 369.62890625 165.1056363224065 L 384.1796875 163.2414953587392 L 400 161.4755863373436" stroke-linecap="round" stroke-linejoin="round" stroke-miterlimit="10" stroke-width="3.5" stroke-dasharray=""/></g></g></g><g id="labels-b8ed0c00"/><g id="labels-b8ed0c00"/></g></svg>