<svg version="1.1" xmlns="http://www.w3.org/2000/svg" xmlns:xlink="http://www.w3.org/1999/xlink" width="800" height="800"><defs/><g transform="scale(2,2)"><g id="background-73ec6ccc"><rect fill="white" stroke="none" x="0" y="0" width="400" height="400" class="dcg-svg-background"/></g><g id="graphpaper-73ec6ccc"><g id="grid-73ec6ccc"><g><path fill="none" stroke="rgb(0,0,0)" class="dcg-svg-minor-gridline" paint-order="fill stroke markers" d=" M 1.5 0 L 1.5 400" stroke-opacity="0.3" stroke-miterlimit="10" stroke-dasharray=""/><path fill="none" stroke="rgb(0,0,0)" class="dcg-svg-minor-gridline" paint-order="fill stroke markers" d=" M 22.5 0 L 22.5 400" stroke-opacity="0.3" stroke-miterlimit="10" stroke-dasharray=""/><path fill="none" stroke="rgb(0,0,0)" class="dcg-svg-minor-gridline" paint-order="fill stroke markers" d=" M 43.5 0 L 43.5 400" stroke-opacity="0.3" stroke-miterlimit="10" stroke-dasharray=""/><path fill="none" stroke="rgb(0,0,0)" class="dcg-svg-minor-gridline" paint-order="fill stroke markers" d=" M 64.5 0 L 64.5 400" stroke-opacity="0.3" stroke-miterlimit="10" stroke-dasharray=""/><path fill="none" stroke="rgb(0,0,0)" class="dcg-svg-minor-gridline" paint-order="fill stroke markers" d=" M 85.5 0 L 85.5 400" stroke-opacity="0.3" stroke-miterlimit="10" stroke-dasharray=""/><path fill="none" stroke="rgb(0,0,0)" class="dcg-svg-minor-gridline" paint-order="fill stroke markers" d=" M 106.5 0 L 106.5 400" stroke-opacity="0.3" stroke-miterlimit="10" stroke-dasharray=""/><path fill="none" stroke="rgb(0,0,0)" class="dcg-svg-minor-gridline" paint-order="fill stroke markers" d=" M 127.5 0 L 127.5 400" stroke-opacity="0.3" stroke-miterlimit="10" stroke-dasharray=""/><path fill="none" stroke="rgb(0,0,0)" class="dcg-svg-minor-gridline" paint-order="fill stroke markers" d=" M 148.5 0 L 148.5 400" stroke-opacity="0.3" stroke-miterlimit="10" stroke-dasharray=""/><path fill="none" stroke="rgb(0,0,0)" class="dcg-svg-minor-gridline" paint-order="fill stroke markers" d=" M 169.5 0 L 169.5 400" stroke-opacity="0.3" stroke-miterlimit="10" stroke-dasharray=""/><path fill="none" stroke="rgb(0,0,0)" class="dcg-svg-minor-gridline" paint-order="fill stroke markers" d=" M 212.5 0 L 212.5 400" stroke-opacity="0.3" stroke-miterlimit="10" stroke-dasharray=""/><path fill="none" stroke="rgb(0,0,0)" class="dcg-svg-minor-gridline" paint-order="fill stroke markers" d=" M 233.5 0 L 233.5 400" stroke-opacity="0.3" stroke-miterlimit="10" stroke-dasharray=""/><path fill="none" stroke="rgb(0,0,0)" class="dcg-svg-minor-gridline" paint-order="fill stroke markers" d=" M 254.5 0 L 254.5 400" stroke-opacity="0.3" stroke-miterlimit="10" stroke-dasharray=""/><path fill="none" stroke="rgb(0,0,0)" class="dcg-svg-minor-gridline" paint-order="fill stroke markers" d=" M 275.5 0 L 275.5 400" stroke-opacity="0.3" stroke-miterlimit="10" stroke-dasharray=""/><path fill="none" stroke="rgb(0,0,0)" class="dcg-svg-minor-gridline" paint-order="fill stroke markers" d=" M 296.5 0 L 296.5 400" stroke-opacity="0.3" stroke-miterlimit="10" stroke-dasharray=""/><path fill="none" stroke="rgb(0,0,0)" class="dcg-svg-minor-gridline" paint-order="fill stroke markers" d=" M 317.5 0 L 317.5 400" stroke-opacity="0.3" stroke-miterlimit="10" stroke-dasharray=""/><path fill="none" stroke="rgb(0,0,0)" class="dcg-svg-minor-gridline" paint-order="fill stroke markers" d=" M 338.5 0 L 338.5 400" stroke-opacity="0.3" stroke-miterlimit="10" stroke-dasharray=""/><path fill="none" stroke="rgb(0,0,0)" class="dcg-svg-minor-gridline" paint-order="fill stroke markers" d=" M 359.5 0 L 359.5 400" stroke-opacity="0.3" stroke-miterlimit="10" stroke-dasharray=""/><path fill="none" stroke="rgb(0,0,0)" class="dcg-svg-minor-gridline" paint-order="fill stroke markers" d=" M 380.5 0 L 380.5 400" stroke-opacity="0.3" stroke-miterlimit="10" stroke-dasharray=""/><path fill="none" stroke="rgb(0,0,0)" class="dcg-svg-minor-gridline" paint-order="fill stroke markers" d=" M 0 391.5 L 400 391.5" stroke-opacity="0.3" stroke-miterlimit="10" stroke-dasharray=""/><path fill="none" stroke="rgb(0,0,0)" class="dcg-svg-minor-gridline" paint-order="fill stroke markers" d=" M 0 370.5 L 400 370.5" stroke-opacity="0.3" stroke-miterlimit="10" stroke-dasharray=""/><path fill="none" stroke="rgb(0,0,0)" class="dcg-svg-minor-gridline" paint-order="fill stroke markers" d=" M 0 349.5 L 400 349.5" stroke-opacity="0.3" stroke-miterlimit="10" stroke-dasharray=""/><path fill="none" stroke="rgb(0,0,0)" class="dcg-svg-minor-gridline" paint-order="fill stroke markers" d=" M 0 328.5 L 400 328.5" stroke-opacity="0.3" stroke-miterlimit="10" stroke-dasharray=""/><path fill="none" stroke="rgb(0,0,0)" class="dcg-svg-minor-gridline" paint-order="fill stroke markers" d=" M 0 307.5 L 400 307.5" stroke-opacity="0.3" stroke-miterlimit="10" stroke-dasharray=""/><path fill="none" stroke="rgb(0,0,0)" class="dcg-svg-minor-gridline" paint-order="fill stroke markers" d=" M 0 286.5 L 400 286.5" stroke-opacity="0.3" stroke-miterlimit="10" stroke-dasharray=""/><path fill="none" stroke="rgb(0,0,0)" class="dcg-svg-minor-gridline" paint-order="fill stroke markers" d=" M 0 265.5 L 400 265.5" stroke-opacity="0.3" stroke-miterlimit="10" stroke-dasharray=""/><path fill="none" stroke="rgb(0,0,0)" class="dcg-svg-minor-gridline" paint-order="fill stroke markers" d=" M 0 244.5 L 400 244.5" stroke-opacity="0.3" stroke-miterlimit="10" stroke-dasharray=""/><path fill="none" stroke="rgb(0,0,0)" class="dcg-svg-minor-gridline" paint-order="fill stroke markers" d=" M 0 223.5 L 400 223.5" stroke-opacity="0.3" stroke-miterlimit="10" stroke-dasharray=""/><path fill="none" stroke="rgb(0,0,0)" class="dcg-svg-minor-gridline" paint-order="fill stroke markers" d=" M 0 180.5 L 400 180.5" stroke-opacity="0.3" stroke-miterlimit="10" stroke-dasharray=""/><path fill="none" stroke="rgb(0,0,0)" class="dcg-svg-minor-gridline" paint-order="fill stroke markers" d=" M 0 159.5 L 400 159.5" stroke-opacity="0.3" stroke-miterlimit="10" stroke-dasharray=""/><path fill="none" stroke="rgb(0,0,0)" class="dcg-svg-minor-gridline" paint-order="fill stroke markers" d=" M 0 138.5 L 400 138.5" stroke-opacity="0.3" stroke-miterlimit="10" stroke-dasharray=""/><path fill="none" stroke="rgb(0,0,0)" class="dcg-svg-minor-gridline" paint-order="fill stroke markers" d=" M 0 117.5 L 400 117.5" stroke-opacity="0.3" stroke-miterlimit="10" stroke-dasharray=""/><path fill="none" stroke="rgb(0,0,0)" class="dcg-svg-minor-gridline" paint-order="fill stroke markers" d=" M 0 96.5 L 400 96.5" stroke-opacity="0.3" stroke-miterlimit="10" stroke-dasharray=""/><path fill="none" stroke="rgb(0,0,0)" class="dcg-svg-minor-gridline" paint-order="fill stroke markers" d=" M 0 75.5 L 400 75.5" stroke-opacity="0.3" stroke-miterlimit="10" stroke-dasharray=""/><path fill="none" stroke="rgb(0,0,0)" class="dcg-svg-minor-gridline" paint-order="fill stroke markers" d=" M 0 54.5 L 400 54.5" stroke-opacity="0.3" stroke-miterlimit="10" stroke-dasharray=""/><path fill="none" stroke="rgb(0,0,0)" class="dcg-svg-minor-gridline" paint-order="fill stroke markers" d=" M 0 33.5 L 400 33.5" stroke-opacity="0.3" stroke-miterlimit="10" stroke-dasharray=""/><path fill="none" stroke="rgb(0,0,0)" class="dcg-svg-minor-gridline" paint-order="fill stroke markers" d=" M 0 12.5 L 400 12.5" stroke-opacity="0.3" stroke-miterlimit="10" stroke-dasharray=""/><path fill="none" stroke="rgb(0,0,0)" class="dcg-svg-major-gridline" paint-order="fill stroke markers" d=" M 22.5 0 L 22.5 400" stroke-opacity="0.4285714285714285" stroke-miterlimit="10" stroke-dasharray=""/><path fill="none" stroke="rgb(0,0,0)" class="dcg-svg-major-gridline" paint-order="fill stroke markers" d=" M 106.5 0 L 106.5 400" stroke-opacity="0.4285714285714285" stroke-miterlimit="10" stroke-dasharray=""/><path fill="none" stroke="rgb(0,0,0)" class="dcg-svg-major-gridline" paint-order="fill stroke markers" d=" M 275.5 0 L 275.5 400" stroke-opacity="0.4285714285714285" stroke-miterlimit="10" stroke-dasharray=""/><path fill="none" stroke="rgb(0,0,0)" class="dcg-svg-major-gridline" paint-order="fill stroke markers" d=" M 359.5 0 L 359.5 400" stroke-opacity="0.4285714285714285" stroke-miterlimit="10" stroke-dasharray=""/><path fill="none" stroke="rgb(0,0,0)" class="dcg-svg-major-gridline" paint-order="fill stroke markers" d=" M 0 370.5 L 400 370.5" stroke-opacity="0.4285714285714285" stroke-miterlimit="10" stroke-dasharray=""/><path fill="none" stroke="rgb(0,0,0)" class="dcg-svg-major-gridline" paint-order="fill stroke markers" d=" M 0 286.5 L 400 286.5" stroke-opacity="0.4285714285714285" stroke-miterlimit="10" stroke-dasharray=""/><path fill="none" stroke="rgb(0,0,0)" class="dcg-svg-major-gridline" paint-order="fill stroke markers" d=" M 0 117.5 L 400 117.5" stroke-opacity="0.4285714285714285" stroke-miterlimit="10" stroke-dasharray=""/><path fill="none" stroke="rgb(0,0,0)" class="dcg-svg-major-gridline" paint-order="fill stroke markers" d=" M 0 33.5 L 400 33.5" stroke-opacity="0.4285714285714285" stroke-miterlimit="10" stroke-dasharray=""/></g></g><g id="axis-73ec6ccc"><g id="yaxis-73ec6ccc"><title>Y axis</title><g><path fill="none" stroke="rgb(0,0,0)" class="dcg-svg-axis-line" paint-order="fill stroke markers" d=" M 191 0 L 191 400" stroke-opacity="0.9" stroke-miterlimit="10" stroke-width="2" stroke-dasharray=""/></g></g><g id="xaxis-73ec6ccc"><title>X axis</title><g><path fill="none" stroke="rgb(0,0,0)" class="dcg-svg-axis-line" paint-order="fill stroke markers" d=" M 0 202 L 400 202" stroke-opacity="0.9" stroke-miterlimit="10" stroke-width="2" stroke-dasharray=""/></g></g><g><g class="dcg-svg-axis-value"><text fill="none" stroke="#ffffff" font-family="Arial" font-size="17px" font-style="normal" font-weight="normal" text-decoration="normal" x="181.2628368036074" y="220.15432301265486" text-anchor="middle" stroke-miterlimit="2" stroke-width="3" stroke-dasharray="">0</text><text fill="#000000" stroke="none" font-family="Arial" font-size="17px" font-style="normal" font-weight="normal" text-decoration="normal" x="181.2628368036074" y="220.15432301265486" text-anchor="middle">0</text></g><g class="dcg-svg-axis-value"><text fill="none" stroke="#ffffff" font-family="Arial" font-size="17px" font-style="normal" font-weight="normal" text-decoration="normal" x="19.526271823432637" y="220.15432301265486" text-anchor="middle" stroke-miterlimit="2" stroke-width="3" stroke-dasharray="">-4</text><text fill="#000000" stroke="none" font-family="Arial" font-size="17px" font-style="normal" font-weight="normal" text-decoration="normal" x="19.526271823432637" y="220.15432301265486" text-anchor="middle">-4</text></g><g class="dcg-svg-axis-value"><text fill="none" stroke="#ffffff" font-family="Arial" font-size="17px" font-style="normal" font-weight="normal" text-decoration="normal" x="103.84291857133252" y="220.15432301265486" text-anchor="middle" stroke-miterlimit="2" stroke-width="3" stroke-dasharray="">-2</text><text fill="#000000" stroke="none" font-family="Arial" font-size="17px" font-style="normal" font-weight="normal" text-decoration="normal" x="103.84291857133252" y="220.15432301265486" text-anchor="middle">-2</text></g><g class="dcg-svg-axis-value"><text fill="none" stroke="#ffffff" font-family="Arial" font-size="17px" font-style="normal" font-weight="normal" text-decoration="normal" x="275.3067784733823" y="220.15432301265486" text-anchor="middle" stroke-miterlimit="2" stroke-width="3" stroke-dasharray="">2</text><text fill="#000000" stroke="none" font-family="Arial" font-size="17px" font-style="normal" font-weight="normal" text-decoration="normal" x="275.3067784733823" y="220.15432301265486" text-anchor="middle">2</text></g><g class="dcg-svg-axis-value"><text fill="none" stroke="#ffffff" font-family="Arial" font-size="17px" font-style="normal" font-weight="normal" text-decoration="normal" x="359.62342522128216" y="220.15432301265486" text-anchor="middle" stroke-miterlimit="2" stroke-width="3" stroke-dasharray="">4</text><text fill="#000000" stroke="none" font-family="Arial" font-size="17px" font-style="normal" font-weight="normal" text-decoration="normal" x="359.62342522128216" y="220.15432301265486" text-anchor="middle">4</text></g><g class="dcg-svg-axis-value"><text fill="none" stroke="#ffffff" font-family="Arial" font-size="17px" font-style="normal" font-weight="normal" text-decoration="normal" x="178.4322703973574" y="375.28761650845354" text-anchor="middle" stroke-miterlimit="2" stroke-width="3" stroke-dasharray="">-4</text><text fill="#000000" stroke="none" font-family="Arial" font-size="17px" font-style="normal" font-weight="normal" text-decoration="normal" x="178.4322703973574" y="375.28761650845354" text-anchor="middle">-4</text></g><g class="dcg-svg-axis-value"><text fill="none" stroke="#ffffff" font-family="Arial" font-size="17px" font-style="normal" font-weight="normal" text-decoration="normal" x="178.4322703973574" y="290.9709697605542" text-anchor="middle" stroke-miterlimit="2" stroke-width="3" stroke-dasharray="">-2</text><text fill="#000000" stroke="none" font-family="Arial" font-size="17px" font-style="normal" font-weight="normal" text-decoration="normal" x="178.4322703973574" y="290.9709697605542" text-anchor="middle">-2</text></g><g class="dcg-svg-axis-value"><text fill="none" stroke="#ffffff" font-family="Arial" font-size="17px" font-style="normal" font-weight="normal" text-decoration="normal" x="181.2628368036074" y="122.33767626475554" text-anchor="middle" stroke-miterlimit="2" stroke-width="3" stroke-dasharray="">2</text><text fill="#000000" stroke="none" font-family="Arial" font-size="17px" font-style="normal" font-weight="normal" text-decoration="normal" x="181.2628368036074" y="122.33767626475554" text-anchor="middle">2</text></g><g class="dcg-svg-axis-value"><text fill="none" stroke="#ffffff" font-family="Arial" font-size="17px" font-style="normal" font-weight="normal" text-decoration="normal" x="181.2628368036074" y="38.02102951685624" text-anchor="middle" stroke-miterlimit="2" stroke-width="3" stroke-dasharray="">4</text><text fill="#000000" stroke="none" font-family="Arial" font-size="17px" font-style="normal" font-weight="normal" text-decoration="normal" x="181.2628368036074" y="38.02102951685624" text-anchor="middle">4</text></g></g></g></g><g id="expressions-73ec6ccc"><g id="sketch-73ec6ccc"><title>表达式1</title><path fill="#348543" stroke="none" paint-order="stroke fill markers" d="" fill-opacity="0.4"/><g><path fill="none" stroke="#348543" class="dcg-svg-curve" paint-order="fill stroke markers" d=" M 0 393.020454738136 L 0 393.020454738136 L 399.52045473813865 -6.5" stroke-linecap="round" stroke-linejoin="round" stroke-miterlimit="10" stroke-width="3.5" stroke-dasharray=""/></g></g><g id="sketch-73ec6ccc"><title>表达式2</title><path fill="#6042a6" stroke="none" paint-order="stroke fill markers" d="" fill-opacity="0.4"/><g><path fill="none" stroke="#6042a6" class="dcg-svg-curve" paint-order="fill stroke markers" d=" M 97.24337009545944 -6.5 L 97.24337009545944 -6.5 L 100.97656250000001 9.839505250740814 L 105.37109375000001 28.14723001525377 L 109.66796875 45.16226798233319 L 113.8671875 60.94433927350724 L 117.96875 75.55180673481463 L 121.97265625 89.04167593680496 L 125.9765625 101.77101843963844 L 129.8828125 113.45696040990184 L 133.69140625 124.15379286716615 L 137.40234375 133.9144495555131 L 141.015625 142.79050694353504 L 144.62890625 151.04719428328474 L 148.14453125 158.48624124684702 L 151.5625 165.15650975183573 L 154.98046875 171.2725574320374 L 158.30078125 176.6831661764983 L 161.62109375 181.57077143242543 L 164.94140625 185.9353731998187 L 168.1640625 189.67144830919688 L 171.19140625 192.73228886228048 L 174.0234375 195.20204593940454 L 176.7578125 197.22560369923934 L 179.39453125000003 198.84096585548457 L 181.93359375 200.08477884635067 L 184.375 200.99233183455874 L 186.81640625 201.61711909583462 L 189.16015625 201.95088887076164 L 191.50390625 202.02406175174792 L 193.84765625 201.83663773879348 L 196.19140625 201.38861683189833 L 198.53515625 200.67999903106247 L 200.9765625 199.66474507613154 L 203.41796875 198.3667253942684 L 205.95703125 196.71682704200103 L 208.59375 194.67976085660834 L 211.328125 192.21888039987988 L 214.2578125 189.18861287578116 L 217.28515625 185.62956844250945 L 220.5078125 181.3631472671246 L 223.828125 176.45212834081528 L 227.1484375 171.01810592597215 L 230.46875 165.06108002259526 L 233.88671875 158.38254409056836 L 237.3046875 151.14978733375426 L 240.8203125 143.13218102545744 L 244.43359375 134.2808632480639 L 248.046875 124.81017542239805 L 251.75781250000003 114.4388172034979 L 255.56640625 103.11521212277118 L 259.47265625 90.786426436136 L 263.37890625 77.73376048855438 L 267.3828125 63.60352590896977 L 271.484375 48.34007440232185 L 275.68359375 31.88640039806114 L 279.98046875 14.184141050148696 L 284.375 -4.826423762943392 L 284.7438929123954 -6.5" stroke-linecap="round" stroke-linejoin="round" stroke-miterlimit="10" stroke-width="3.5" stroke-dasharray=""/></g></g><g id="sketch-73ec6ccc"><title>表达式3</title><path fill="#c74440" stroke="none" paint-order="stroke fill markers" d="" fill-opacity="0.4"/><g><path fill="none" stroke="#c74440" class="dcg-svg-curve" paint-order="fill stroke markers" d=" M 119.63210921259952 406.5 L 119.63210921259952 406.5 L 122.26562500000001 384.6586886260984 L 124.90234374999999 364.43442185327024 L 127.5390625 345.7612323009387 L 130.078125 329.18784641425833 L 132.6171875 313.9401270192559 L 135.05859375 300.47758066689596 L 137.5 288.1404720024005 L 139.84375 277.31005865616424 L 142.1875 267.4281119813186 L 144.53125 258.4511691035395 L 146.77734375 250.65727443963513 L 149.0234375 243.61636811219148 L 151.26953125 237.29019688105362 L 153.515625 231.64050750606654 L 155.76171875 226.62904674707534 L 158.0078125 222.21756136392494 L 160.25390625 218.36779811646036 L 162.5 215.0415037645267 L 164.84375 212.08731561463247 L 167.1875 209.61799014333752 L 169.43359375 207.6663151562521 L 171.6796875 206.08176973536854 L 173.92578125 204.82610064053176 L 176.26953125 203.82509761866874 L 178.7109375 203.07202368631556 L 181.34765625 202.5347507592037 L 184.375 202.19319591232139 L 188.18359375 202.04276088535835 L 198.6328125 201.77915143209378 L 201.66015625 201.34683706282868 L 204.296875 200.70461258304343 L 206.73828125 199.83285821090593 L 208.984375 198.75213316140335 L 211.1328125 197.4321516910041 L 213.28125 195.79830202750946 L 215.4296875 193.8171066907543 L 217.578125 191.4550882005733 L 219.82421875 188.5421864902562 L 222.0703125 185.13821121918565 L 224.31640625 181.20490914720665 L 226.46484375 176.91203855490187 L 228.61328125 172.06639229741359 L 230.76171875 166.63449289457654 L 232.91015625 160.58286286622558 L 235.15625 153.55719657921492 L 237.40234375 145.77933678778425 L 239.6484375 137.21103025177857 L 241.89453125 127.81402373104284 L 244.23828125 117.08354755535315 L 246.58203125 105.36562919053051 L 248.92578125 92.61680576225095 L 251.3671875 78.19369090961902 L 253.80859375 62.55568698884238 L 256.34765625 44.9506016984852 L 258.88671875 25.923099303538976 L 261.5234375 4.599000206324888 L 262.79696069018325 -6.5" stroke-linecap="round" stroke-linejoin="round" stroke-miterlimit="10" stroke-width="3.5" stroke-dasharray=""/></g></g><g id="sketch-73ec6ccc"><title>表达式4</title><path fill="#2d70b3" stroke="none" paint-order="stroke fill markers" d="" fill-opacity="0.4"/><g><path fill="none" stroke="#2d70b3" class="dcg-svg-curve" paint-order="fill stroke markers" d=" M 0 211.33616627086644 L 0 211.33616627086644 L 21.2890625 212.50358778237168 L 39.16015625 213.73633972072926 L 54.39453125 215.04190042448764 L 67.38281249999999 216.4091174144682 L 78.61328125 217.84607351805175 L 88.37890625000001 219.35127616828393 L 96.97265625 220.93451311895066 L 104.4921875 222.57791227176375 L 111.23046875 224.3138202517149 L 117.1875 226.11244838067003 L 122.55859375 228.00262003072422 L 127.44140625 229.99822034504476 L 131.8359375 232.07593943890123 L 135.83984375 234.2572486543242 L 139.55078125 236.5821634475307 L 142.96875 239.04142443957176 L 146.19140625 241.7038675351485 L 149.12109375 244.47993054228772 L 151.953125 247.5595369250097 L 154.58984375 250.85752544851601 L 157.12890625 254.51880223173728 L 159.47265625 258.4220296100031 L 161.62109375 262.54726031193763 L 163.57421875 266.85852082944666 L 165.4296875 271.56449127764245 L 167.08984375 276.3944575170488 L 168.65234375 281.5961346164397 L 170.21484375000003 287.58024327368815 L 171.6796875 294.0698540016486 L 173.046875 301.0828114708078 L 174.31640625 308.62463106432335 L 175.5859375 317.40956347707225 L 176.7578125 326.90977530320606 L 177.9296875 338.11483890031235 L 179.00390625 350.31088333900675 L 180.078125 364.9081762265832 L 181.0546875 380.9175664379709 L 182.03125 400.4171623708697 L 182.2789941498827 406.5" stroke-linecap="round" stroke-linejoin="round" stroke-miterlimit="10" stroke-width="3.5" stroke-dasharray=""/></g><g><path fill="none" stroke="#2d70b3" class="dcg-svg-curve" paint-order="fill stroke markers" d=" M 199.52205904603397 -6.5 L 199.52205904603397 -6.5 L 199.609375 -4.173884606951418 L 200.5859375 16.811460577741514 L 201.5625 33.92000150726639 L 202.63671875 49.42559632654343 L 203.80859375 63.376853797465856 L 204.98046875 74.99090812309082 L 206.25 85.55983993053891 L 207.51953125 94.50528999096123 L 208.88671875 102.7195311131905 L 210.25390625 109.76781093640179 L 211.71875 116.2877903380363 L 213.28125 122.29792880010005 L 214.94140625 127.82449200841447 L 216.69921875 132.89818199156113 L 218.5546875 137.5517134445808 L 220.5078125 141.8181321132644 L 222.65625 145.9033227186917 L 224.90234375 149.62075950740297 L 227.44140625 153.27141806662698 L 230.17578125 156.67381492184245 L 233.10546875 159.82896941389708 L 236.1328125 162.65906283916078 L 239.35546875 165.2824300164466 L 242.7734375 167.70798296272437 L 246.484375 170.0031410054961 L 250.48828125 172.15839852582468 L 254.8828125 174.21298606329688 L 259.66796875 176.1511703382917 L 264.94140625 177.99660295671083 L 270.80078125 179.76106145055553 L 277.24609375 181.42508961212388 L 284.47265625 183.01795424381203 L 292.67578125 184.55170889145592 L 301.953125 186.01305295483027 L 312.5 187.40332806202952 L 324.609375 188.72891382826776 L 338.57421875 189.9875325903564 L 354.78515625 191.17941814016598 L 373.73046875 192.30436836770932 L 396.19140625000006 193.3689526882217 L 400 193.5267808384253" stroke-linecap="round" stroke-linejoin="round" stroke-miterlimit="10" stroke-width="3.5" stroke-dasharray=""/></g></g></g><g id="labels-73ec6ccc"/><g id="labels-73ec6ccc"/></g></svg>