<svg version="1.1" xmlns="http://www.w3.org/2000/svg" xmlns:xlink="http://www.w3.org/1999/xlink" width="800" height="800"><defs/><g transform="scale(2,2)"><g id="background-bd31a731"><rect fill="white" stroke="none" x="0" y="0" width="400" height="400" class="dcg-svg-background"/></g><g id="graphpaper-bd31a731"><g id="grid-bd31a731"><g><path fill="none" stroke="rgb(0,0,0)" class="dcg-svg-minor-gridline" paint-order="fill stroke markers" d=" M 27.5 0 L 27.5 400" stroke-opacity="0.3" stroke-miterlimit="10" stroke-dasharray=""/><path fill="none" stroke="rgb(0,0,0)" class="dcg-svg-minor-gridline" paint-order="fill stroke markers" d=" M 56.5 0 L 56.5 400" stroke-opacity="0.3" stroke-miterlimit="10" stroke-dasharray=""/><path fill="none" stroke="rgb(0,0,0)" class="dcg-svg-minor-gridline" paint-order="fill stroke markers" d=" M 84.5 0 L 84.5 400" stroke-opacity="0.3" stroke-miterlimit="10" stroke-dasharray=""/><path fill="none" stroke="rgb(0,0,0)" class="dcg-svg-minor-gridline" paint-order="fill stroke markers" d=" M 113.5 0 L 113.5 400" stroke-opacity="0.3" stroke-miterlimit="10" stroke-dasharray=""/><path fill="none" stroke="rgb(0,0,0)" class="dcg-svg-minor-gridline" paint-order="fill stroke markers" d=" M 142.5 0 L 142.5 400" stroke-opacity="0.3" stroke-miterlimit="10" stroke-dasharray=""/><path fill="none" stroke="rgb(0,0,0)" class="dcg-svg-minor-gridline" paint-order="fill stroke markers" d=" M 171.5 0 L 171.5 400" stroke-opacity="0.3" stroke-miterlimit="10" stroke-dasharray=""/><path fill="none" stroke="rgb(0,0,0)" class="dcg-svg-minor-gridline" paint-order="fill stroke markers" d=" M 228.5 0 L 228.5 400" stroke-opacity="0.3" stroke-miterlimit="10" stroke-dasharray=""/><path fill="none" stroke="rgb(0,0,0)" class="dcg-svg-minor-gridline" paint-order="fill stroke markers" d=" M 257.5 0 L 257.5 400" stroke-opacity="0.3" stroke-miterlimit="10" stroke-dasharray=""/><path fill="none" stroke="rgb(0,0,0)" class="dcg-svg-minor-gridline" paint-order="fill stroke markers" d=" M 286.5 0 L 286.5 400" stroke-opacity="0.3" stroke-miterlimit="10" stroke-dasharray=""/><path fill="none" stroke="rgb(0,0,0)" class="dcg-svg-minor-gridline" paint-order="fill stroke markers" d=" M 315.5 0 L 315.5 400" stroke-opacity="0.3" stroke-miterlimit="10" stroke-dasharray=""/><path fill="none" stroke="rgb(0,0,0)" class="dcg-svg-minor-gridline" paint-order="fill stroke markers" d=" M 343.5 0 L 343.5 400" stroke-opacity="0.3" stroke-miterlimit="10" stroke-dasharray=""/><path fill="none" stroke="rgb(0,0,0)" class="dcg-svg-minor-gridline" paint-order="fill stroke markers" d=" M 372.5 0 L 372.5 400" stroke-opacity="0.3" stroke-miterlimit="10" stroke-dasharray=""/><path fill="none" stroke="rgb(0,0,0)" class="dcg-svg-minor-gridline" paint-order="fill stroke markers" d=" M 0 376.5 L 400 376.5" stroke-opacity="0.3" stroke-miterlimit="10" stroke-dasharray=""/><path fill="none" stroke="rgb(0,0,0)" class="dcg-svg-minor-gridline" paint-order="fill stroke markers" d=" M 0 347.5 L 400 347.5" stroke-opacity="0.3" stroke-miterlimit="10" stroke-dasharray=""/><path fill="none" stroke="rgb(0,0,0)" class="dcg-svg-minor-gridline" paint-order="fill stroke markers" d=" M 0 319.5 L 400 319.5" stroke-opacity="0.3" stroke-miterlimit="10" stroke-dasharray=""/><path fill="none" stroke="rgb(0,0,0)" class="dcg-svg-minor-gridline" paint-order="fill stroke markers" d=" M 0 290.5 L 400 290.5" stroke-opacity="0.3" stroke-miterlimit="10" stroke-dasharray=""/><path fill="none" stroke="rgb(0,0,0)" class="dcg-svg-minor-gridline" paint-order="fill stroke markers" d=" M 0 261.5 L 400 261.5" stroke-opacity="0.3" stroke-miterlimit="10" stroke-dasharray=""/><path fill="none" stroke="rgb(0,0,0)" class="dcg-svg-minor-gridline" paint-order="fill stroke markers" d=" M 0 232.5 L 400 232.5" stroke-opacity="0.3" stroke-miterlimit="10" stroke-dasharray=""/><path fill="none" stroke="rgb(0,0,0)" class="dcg-svg-minor-gridline" paint-order="fill stroke markers" d=" M 0 175.5 L 400 175.5" stroke-opacity="0.3" stroke-miterlimit="10" stroke-dasharray=""/><path fill="none" stroke="rgb(0,0,0)" class="dcg-svg-minor-gridline" paint-order="fill stroke markers" d=" M 0 146.5 L 400 146.5" stroke-opacity="0.3" stroke-miterlimit="10" stroke-dasharray=""/><path fill="none" stroke="rgb(0,0,0)" class="dcg-svg-minor-gridline" paint-order="fill stroke markers" d=" M 0 117.5 L 400 117.5" stroke-opacity="0.3" stroke-miterlimit="10" stroke-dasharray=""/><path fill="none" stroke="rgb(0,0,0)" class="dcg-svg-minor-gridline" paint-order="fill stroke markers" d=" M 0 88.5 L 400 88.5" stroke-opacity="0.3" stroke-miterlimit="10" stroke-dasharray=""/><path fill="none" stroke="rgb(0,0,0)" class="dcg-svg-minor-gridline" paint-order="fill stroke markers" d=" M 0 60.5 L 400 60.5" stroke-opacity="0.3" stroke-miterlimit="10" stroke-dasharray=""/><path fill="none" stroke="rgb(0,0,0)" class="dcg-svg-minor-gridline" paint-order="fill stroke markers" d=" M 0 31.5 L 400 31.5" stroke-opacity="0.3" stroke-miterlimit="10" stroke-dasharray=""/><path fill="none" stroke="rgb(0,0,0)" class="dcg-svg-minor-gridline" paint-order="fill stroke markers" d=" M 0 2.5 L 400 2.5" stroke-opacity="0.3" stroke-miterlimit="10" stroke-dasharray=""/><path fill="none" stroke="rgb(0,0,0)" class="dcg-svg-major-gridline" paint-order="fill stroke markers" d=" M 56.5 0 L 56.5 400" stroke-opacity="0.4285714285714285" stroke-miterlimit="10" stroke-dasharray=""/><path fill="none" stroke="rgb(0,0,0)" class="dcg-svg-major-gridline" paint-order="fill stroke markers" d=" M 343.5 0 L 343.5 400" stroke-opacity="0.4285714285714285" stroke-miterlimit="10" stroke-dasharray=""/><path fill="none" stroke="rgb(0,0,0)" class="dcg-svg-major-gridline" paint-order="fill stroke markers" d=" M 0 347.5 L 400 347.5" stroke-opacity="0.4285714285714285" stroke-miterlimit="10" stroke-dasharray=""/><path fill="none" stroke="rgb(0,0,0)" class="dcg-svg-major-gridline" paint-order="fill stroke markers" d=" M 0 60.5 L 400 60.5" stroke-opacity="0.4285714285714285" stroke-miterlimit="10" stroke-dasharray=""/></g></g><g id="axis-bd31a731"><g id="yaxis-bd31a731"><title>Y axis</title><g><path fill="none" stroke="rgb(0,0,0)" class="dcg-svg-axis-line" paint-order="fill stroke markers" d=" M 200 0 L 200 400" stroke-opacity="0.9" stroke-miterlimit="10" stroke-width="2" stroke-dasharray=""/></g></g><g id="xaxis-bd31a731"><title>X axis</title><g><path fill="none" stroke="rgb(0,0,0)" class="dcg-svg-axis-line" paint-order="fill stroke markers" d=" M 0 204 L 400 204" stroke-opacity="0.9" stroke-miterlimit="10" stroke-width="2" stroke-dasharray=""/></g></g><g><g class="dcg-svg-axis-value"><text fill="none" stroke="#ffffff" font-family="Arial" font-size="17px" font-style="normal" font-weight="normal" text-decoration="normal" x="190.272705078125" y="222.19713753612885" text-anchor="middle" stroke-miterlimit="2" stroke-width="3" stroke-dasharray="">0</text><text fill="#000000" stroke="none" font-family="Arial" font-size="17px" font-style="normal" font-weight="normal" text-decoration="normal" x="190.272705078125" y="222.19713753612885" text-anchor="middle">0</text></g><g class="dcg-svg-axis-value"><text fill="none" stroke="#ffffff" font-family="Arial" font-size="17px" font-style="normal" font-weight="normal" text-decoration="normal" x="53.28454150741908" y="222.19713753612885" text-anchor="middle" stroke-miterlimit="2" stroke-width="3" stroke-dasharray="">-5</text><text fill="#000000" stroke="none" font-family="Arial" font-size="17px" font-style="normal" font-weight="normal" text-decoration="normal" x="53.28454150741908" y="222.19713753612885" text-anchor="middle">-5</text></g><g class="dcg-svg-axis-value"><text fill="none" stroke="#ffffff" font-family="Arial" font-size="17px" font-style="normal" font-weight="normal" text-decoration="normal" x="343.8848920863309" y="222.19713753612885" text-anchor="middle" stroke-miterlimit="2" stroke-width="3" stroke-dasharray="">5</text><text fill="#000000" stroke="none" font-family="Arial" font-size="17px" font-style="normal" font-weight="normal" text-decoration="normal" x="343.8848920863309" y="222.19713753612885" text-anchor="middle">5</text></g><g class="dcg-svg-axis-value"><text fill="none" stroke="#ffffff" font-family="Arial" font-size="17px" font-style="normal" font-weight="normal" text-decoration="normal" x="187.442138671875" y="352.5683372863616" text-anchor="middle" stroke-miterlimit="2" stroke-width="3" stroke-dasharray="">-5</text><text fill="#000000" stroke="none" font-family="Arial" font-size="17px" font-style="normal" font-weight="normal" text-decoration="normal" x="187.442138671875" y="352.5683372863616" text-anchor="middle">-5</text></g><g class="dcg-svg-axis-value"><text fill="none" stroke="#ffffff" font-family="Arial" font-size="17px" font-style="normal" font-weight="normal" text-decoration="normal" x="190.272705078125" y="64.82593778589609" text-anchor="middle" stroke-miterlimit="2" stroke-width="3" stroke-dasharray="">5</text><text fill="#000000" stroke="none" font-family="Arial" font-size="17px" font-style="normal" font-weight="normal" text-decoration="normal" x="190.272705078125" y="64.82593778589609" text-anchor="middle">5</text></g></g></g></g><g id="expressions-bd31a731"><g id="sketch-bd31a731"><title>表达式1</title><path fill="#c74440" stroke="none" paint-order="stroke fill markers" d="" fill-opacity="0.4"/><g><path fill="none" stroke="#c74440" class="dcg-svg-curve" paint-order="fill stroke markers" d=" M 152.68413544394318 -6.5 L 152.68413544394318 -6.5 L 154.1015625 17.858120207815062 L 155.859375 44.78735653094836 L 157.6171875 68.68450926395587 L 159.27734375 88.683319117714 L 160.9375 106.38018499261558 L 162.59765625 121.95891866698915 L 164.16015625 134.84422222985893 L 165.72265625 146.15004567459556 L 167.28515625 156.0110645978575 L 168.84765625 164.5559523412991 L 170.3125 171.48064276896557 L 171.77734375 177.45273360493078 L 173.2421875 182.56387495836515 L 174.70703125 186.9010803393242 L 176.171875 190.54672665874858 L 177.63671875 193.57855422846407 L 179.19921875 196.21821902735167 L 180.76171875 198.3255158506487 L 182.421875 200.06711590089142 L 184.08203125 201.37928581084444 L 185.7421875 202.3391950296712 L 187.5 203.04875268206618 L 189.453125 203.55395713220207 L 191.796875 203.88314330509272 L 195.01953125 204.04732064315073 L 202.63671875 204.071109487676 L 207.71484375 203.92449892617967 L 210.3515625 203.5913597949548 L 212.40234375 203.0803915178608 L 214.16015625 202.38621446073998 L 215.8203125 201.44478674124957 L 217.3828125 200.24221580332468 L 218.9453125 198.66770825647615 L 220.5078125 196.65148788627926 L 222.0703125 194.11777622330504 L 223.53515625 191.19979158683435 L 225 187.68297987112612 L 226.3671875 183.79265300773932 L 227.734375 179.24771607628995 L 229.1015625 173.97855478842203 L 230.56640625 167.44619895287988 L 232.03125 159.90402789255918 L 233.49609375 151.2529729397058 L 234.9609375 141.38932882745078 L 236.5234375 129.4094081350591 L 238.0859375 115.78919932315311 L 239.6484375 100.38539855350614 L 241.2109375 83.04869973288655 L 242.87109375 62.33675281037807 L 244.53125 39.07363277736454 L 246.19140625 13.057979117806866 L 247.30839359957722 -6.5" stroke-linecap="round" stroke-linejoin="round" stroke-miterlimit="10" stroke-width="3.5" stroke-dasharray=""/></g></g><g id="sketch-bd31a731"><title>表达式2</title><path fill="#2d70b3" stroke="none" paint-order="stroke fill markers" d="" fill-opacity="0.4"/><g><path fill="none" stroke="#2d70b3" class="dcg-svg-curve" paint-order="fill stroke markers" d=" M 0 208.2133159462075 L 0 208.2133159462075 L 32.42187500000003 209.01432948475417 L 57.51953125 209.88471079441607 L 77.34375000000001 210.82400169523797 L 93.26171875 211.83076368785902 L 106.24999999999999 212.90551814429662 L 116.99218749999999 214.04853210535362 L 125.9765625 215.2592660108532 L 133.59375 216.54238074765982 L 140.13671875 217.9052507234715 L 145.703125 219.3232911041883 L 150.5859375 220.83022327494518 L 154.8828125 222.4261362024515 L 158.69140625 224.1182566468642 L 162.109375 225.92645038108003 L 165.13671875 227.82407698666404 L 167.87109375 229.84543353564575 L 170.41015625 232.0569176808188 L 172.75390625 234.4641245749857 L 175 237.19456481675797 L 177.1484375 240.30854515938125 L 179.00390625 243.51074397259887 L 180.6640625 246.89680109088164 L 182.2265625 250.66151876602478 L 183.59375 254.54388386851608 L 184.9609375 259.1321335350968 L 186.23046875 264.20849486833487 L 187.40234375 269.8024815969123 L 188.4765625 275.92979333139203 L 189.55078125 283.31692617015744 L 190.52734375 291.4863889159336 L 191.40625 300.4263805343226 L 192.28515625 311.40333226829426 L 193.06640625 323.4968753367069 L 193.84765625 338.6617944224947 L 194.53125 355.48537653329026 L 195.21484375 377.11569639002835 L 195.8984375 405.9561228656781 L 195.90790866988203 406.5" stroke-linecap="round" stroke-linejoin="round" stroke-miterlimit="10" stroke-width="3.5" stroke-dasharray=""/></g><g><path fill="none" stroke="#2d70b3" class="dcg-svg-curve" paint-order="fill stroke markers" d=" M 203.9366501049107 -6.5 L 203.9366501049107 -6.5 L 204.58984375 23.667065539510446 L 205.2734375 47.05303783536823 L 206.0546875 67.31369586127298 L 206.8359375 82.94334633839948 L 207.71484375 96.74294280396344 L 208.59375 107.71989453793509 L 209.5703125 117.55185810917934 L 210.64453125 126.28336337244937 L 211.71875 133.41409267078672 L 212.890625 139.83764220399962 L 214.0625 145.19060014834372 L 215.33203125 150.06622426325586 L 216.69921875 154.48784289378352 L 218.1640625 158.48665697784364 L 219.7265625 162.0974673190939 L 221.484375 165.53184033685133 L 223.33984375 168.595792833865 L 225.48828125 171.58622035666122 L 227.83203125 174.32196075072164 L 230.2734375 176.72124920115772 L 232.91015625 178.9126467828913 L 235.7421875 180.90623758027897 L 238.8671875 182.76890290336237 L 242.28515625 184.49095420162294 L 246.09375 186.10897358731305 L 250.390625 187.640801520933 L 255.2734375 189.09242131026127 L 260.83984375 190.46304863750757 L 267.1875 191.74888552473197 L 274.51171875 192.96031265560322 L 283.10546875 194.1094649346705 L 293.26171875 195.19451409755183 L 305.2734375 196.20756667913344 L 319.7265625 197.15708094245753 L 337.3046875 198.0424935931409 L 359.08203125 198.8680513582031 L 386.328125 199.62917245025827 L 400 199.9329591260502" stroke-linecap="round" stroke-linejoin="round" stroke-miterlimit="10" stroke-width="3.5" stroke-dasharray=""/></g></g><g id="sketch-bd31a731"><title>表达式3</title><path fill="#348543" stroke="none" paint-order="stroke fill markers" d="" fill-opacity="0.4"/><g><path fill="none" stroke="#348543" class="dcg-svg-curve" paint-order="fill stroke markers" d=" M 0 203.47742841237653 L 0 203.47742841237653 L 45.3125 203.0773107548251 L 73.43750000000001 202.58554444307018 L 92.7734375 202.00066169780146 L 106.83593749999999 201.32778951390875 L 117.578125 200.5655439839416 L 126.07421875000001 199.7129778279872 L 133.0078125 198.76373167506998 L 138.76953125 197.71750068260022 L 143.65234375 196.5682786605402 L 147.75390625 195.34369335553367 L 151.3671875 193.99835986887 L 154.58984375 192.5176506100525 L 157.421875 190.9293304039911 L 159.9609375 189.20945424885426 L 162.3046875 187.30365942536844 L 164.55078125 185.1112788243616 L 166.6015625 182.71113588954648 L 168.5546875 179.97505913839282 L 170.41015625 176.858102402418 L 172.0703125 173.52659295459847 L 173.6328125 169.7989926720567 L 175.09765625 165.64814467813792 L 176.46484375 161.05416126865998 L 177.734375 156.00863383131855 L 178.90625 150.51978618601615 L 180.078125 144.03408619551794 L 181.15234375 136.99522509308719 L 182.2265625 128.64187438581905 L 183.30078125 118.62513094979946 L 184.27734375 107.68082394518493 L 185.25390625 94.49087532873192 L 186.23046875 78.3961011400292 L 187.109375 60.6740810283888 L 187.98828125 38.92110101085564 L 188.8671875 11.815122716887146 L 189.34231970931947 -6.5 L 210.64784118463407 -6.5 L 211.42578125 21.548105715626036 L 212.3046875 46.691860099063035 L 213.28125 68.98527201975466 L 214.2578125 86.85671979401697 L 215.234375 101.40280713709625 L 216.30859375 114.48279150038493 L 217.3828125 125.21361346748665 L 218.5546875 134.86025220120194 L 219.7265625 142.8393084852794 L 220.8984375 149.5141114074088 L 222.16796875 155.58422526166473 L 223.4375 160.69492294253752 L 224.8046875 165.3449900906756 L 226.26953125 169.5436926612534 L 227.83203125 173.31185516505025 L 229.4921875 176.67757198427958 L 231.25 179.67289182723374 L 233.203125 182.45907905350896 L 235.3515625 185.00637247560826 L 237.59765625 187.21643211807617 L 240.0390625 189.20945424885426 L 242.578125 190.9293304039911 L 245.41015625 192.5176506100525 L 248.53515625 193.95777671692446 L 252.05078125 195.27805866791903 L 256.0546875 196.4896256548663 L 260.64453125 197.59409313838364 L 266.015625 198.6054868048194 L 272.36328125 199.522651978277 L 279.98046875 200.34813688673083 L 289.2578125 201.0822384169197 L 300.9765625 201.73616785107743 L 316.11328125 202.30575545678585 L 336.328125 202.79103334538388 L 364.74609375 203.19519924495603 L 400 203.47742841237653" stroke-linecap="round" stroke-linejoin="round" stroke-miterlimit="10" stroke-width="3.5" stroke-dasharray=""/></g></g><g id="sketch-bd31a731"><title>表达式4</title><path fill="#6042a6" stroke="none" paint-order="stroke fill markers" d="" fill-opacity="0.4"/><g><path fill="none" stroke="#6042a6" class="dcg-svg-curve" paint-order="fill stroke markers" d=" M 200 204.07313753612885 L 200 204.07313753612885 L 200.1953125 201.70260301111927 L 200.5859375 199.96725129771602 L 201.26953125 198.02943663579413 L 202.24609375 196.0342638436257 L 203.61328125 193.87708301568532 L 205.46875 191.52944788119274 L 207.71484375 189.17455906691342 L 210.44921875 186.73417229932636 L 213.671875 184.23982275018403 L 217.48046875 181.64682849704494 L 221.875 178.98575822625665 L 227.05078125 176.17525948249613 L 232.91015625 173.30180968172454 L 239.6484375 170.2982194954393 L 247.265625 167.19627470736407 L 255.95703125 163.94873321449165 L 265.72265625 160.5882031463963 L 276.66015625 157.10902550153324 L 288.8671875 153.50790797974835 L 302.44140625 149.7832388576389 L 317.3828125 145.95876930854 L 333.88671875 142.00767240505155 L 352.05078125 137.93140095608896 L 371.97265625 133.73174446548967 L 393.84765625 129.39189370773795 L 400 128.2160327358213" stroke-linecap="round" stroke-linejoin="round" stroke-miterlimit="10" stroke-width="3.5" stroke-dasharray=""/></g></g></g><g id="labels-bd31a731"/><g id="labels-bd31a731"/></g></svg>