<svg version="1.1" xmlns="http://www.w3.org/2000/svg" xmlns:xlink="http://www.w3.org/1999/xlink" width="800" height="800"><defs/><g transform="scale(2,2)"><g id="background-a7accea0"><rect fill="white" stroke="none" x="0" y="0" width="400" height="400" class="dcg-svg-background"/></g><g id="graphpaper-a7accea0"><g id="grid-a7accea0"><g stroke="rgb(0,0,0)" stroke-opacity="0.2500000000000001" stroke-miterlimit="10" stroke-dasharray=""><path fill="none" stroke="" class="dcg-svg-minor-gridline" d=""/><g transform="scale(1,1.000000533108994)"><path fill="none" stroke="" d=" M 210.87626909020045 216.49988458196432 L 210.87626909020045 216.49988458196432 A 28.376269090200452 28.376269090200452 0 1 1 210.8762549020671 216.47150831760348"/><g transform="scale(1,0.9999994668912902)" stroke=""><path fill="none" stroke="" class="dcg-svg-minor-gridline" d=""/><g transform="scale(1,1.000000533108994)"><path fill="none" stroke="" d=" M 239.65081208275308 216.49988458196432 L 239.65081208275308 216.49988458196432 A 57.15081208275308 57.15081208275308 0 1 1 239.65078350734942 216.44273377940667"/><g transform="scale(1,0.9999994668912902)" stroke=""><path fill="none" stroke="" class="dcg-svg-minor-gridline" d=""/><g transform="scale(1,1.000000533108994)"><path fill="none" stroke="" d=" M 268.4253550753057 216.49988458196432 L 268.4253550753057 216.49988458196432 A 85.92535507530567 85.92535507530567 0 1 1 268.42531211263173 216.41395924120985"/><g transform="scale(1,0.9999994668912902)" stroke=""><path fill="none" stroke="" class="dcg-svg-minor-gridline" d=""/><g transform="scale(1,1.000000533108994)"><path fill="none" stroke="" d=" M 297.1998980678583 216.49988458196432 L 297.1998980678583 216.49988458196432 A 114.69989806785833 114.69989806785833 0 1 1 297.19984071791407 216.38518470301304"/><g transform="scale(1,0.9999994668912902)" stroke=""><path fill="none" stroke="" class="dcg-svg-minor-gridline" d=""/><g transform="scale(1,1.000000533108994)"><path fill="none" stroke="" d=" M 325.9744410604109 216.49988458196432 L 325.9744410604109 216.49988458196432 A 143.47444106041092 143.47444106041092 0 1 1 325.97436932319636 216.35641016481623"/><g transform="scale(1,0.9999994668912902)" stroke=""><path fill="none" stroke="" class="dcg-svg-minor-gridline" d=""/><g transform="scale(1,1.000000533108994)"><path fill="none" stroke="" d=" M 354.7489840529636 216.49988458196432 L 354.7489840529636 216.49988458196432 A 172.24898405296358 172.24898405296358 0 1 1 354.74889792847875 216.3276356266194"/><g transform="scale(1,0.9999994668912902)" stroke=""><path fill="none" stroke="" class="dcg-svg-minor-gridline" d=""/><g transform="scale(1,1.000000533108994)"><path fill="none" stroke="" d=" M 383.5235270455162 216.49988458196432 L 383.5235270455162 216.49988458196432 A 201.02352704551618 201.02352704551618 0 1 1 383.52342653376104 216.2988610884226"/><g transform="scale(1,0.9999994668912902)" stroke=""><path fill="none" stroke="" class="dcg-svg-minor-gridline" d=""/><g transform="scale(1,1.000000533108994)"><path fill="none" stroke="" d=" M 412.2980700380688 216.49988458196432 L 412.2980700380688 216.49988458196432 A 229.79807003806877 229.79807003806877 0 1 1 412.2979551390433 216.27008655022578"/><g transform="scale(1,0.9999994668912902)" stroke=""><path fill="none" stroke="" class="dcg-svg-minor-gridline" d=""/><g transform="scale(1,1.000000533108994)"><path fill="none" stroke="" d=" M 441.0726130306214 216.49988458196432 L 441.0726130306214 216.49988458196432 A 258.5726130306214 258.5726130306214 0 1 1 441.07248374432567 216.241312012029"/><g transform="scale(1,0.9999994668912902)" stroke=""><path fill="none" stroke="" class="dcg-svg-minor-gridline" d=""/><g transform="scale(1,1.000000533108994)"><path fill="none" stroke="" d=" M 469.847156023174 216.49988458196432 L 469.847156023174 216.49988458196432 A 287.347156023174 287.347156023174 0 1 1 469.847012349608 216.21253747383219"/><g transform="scale(1,0.9999994668912902)" stroke=""><path fill="none" stroke="" class="dcg-svg-minor-gridline" paint-order="fill stroke markers" d=" M 182.5 216.5 L 478.5 136.5"/><path fill="none" stroke="" class="dcg-svg-minor-gridline" paint-order="fill stroke markers" d=" M 182.5 216.5 L 448.5 62.5"/><path fill="none" stroke="" class="dcg-svg-minor-gridline" paint-order="fill stroke markers" d=" M 182.5 216.5 L 399.5 -0.5"/><path fill="none" stroke="" class="dcg-svg-minor-gridline" paint-order="fill stroke markers" d=" M 182.5 216.5 L 335.5 -49.5"/><path fill="none" stroke="" class="dcg-svg-minor-gridline" paint-order="fill stroke markers" d=" M 182.5 216.5 L 261.5 -80.5"/><path fill="none" stroke="" class="dcg-svg-minor-gridline" paint-order="fill stroke markers" d=" M 182.5 216.5 L 102.5 -80.5"/><path fill="none" stroke="" class="dcg-svg-minor-gridline" paint-order="fill stroke markers" d=" M 182.5 216.5 L 28.5 -49.5"/><path fill="none" stroke="" class="dcg-svg-minor-gridline" paint-order="fill stroke markers" d=" M 182.5 216.5 L -35.5 -0.5"/><path fill="none" stroke="" class="dcg-svg-minor-gridline" paint-order="fill stroke markers" d=" M 182.5 216.5 L -83.5 62.5"/><path fill="none" stroke="" class="dcg-svg-minor-gridline" paint-order="fill stroke markers" d=" M 182.5 216.5 L -114.5 136.5"/><path fill="none" stroke="" class="dcg-svg-minor-gridline" paint-order="fill stroke markers" d=" M 182.5 216.5 L -114.5 295.5"/><path fill="none" stroke="" class="dcg-svg-minor-gridline" paint-order="fill stroke markers" d=" M 182.5 216.5 L -83.5 369.5"/><path fill="none" stroke="" class="dcg-svg-minor-gridline" paint-order="fill stroke markers" d=" M 182.5 216.5 L -35.5 433.5"/><path fill="none" stroke="" class="dcg-svg-minor-gridline" paint-order="fill stroke markers" d=" M 182.5 216.5 L 28.5 482.5"/><path fill="none" stroke="" class="dcg-svg-minor-gridline" paint-order="fill stroke markers" d=" M 182.5 216.5 L 102.5 513.5"/><path fill="none" stroke="" class="dcg-svg-minor-gridline" paint-order="fill stroke markers" d=" M 182.5 216.5 L 261.5 513.5"/><path fill="none" stroke="" class="dcg-svg-minor-gridline" paint-order="fill stroke markers" d=" M 182.5 216.5 L 335.5 482.5"/><path fill="none" stroke="" class="dcg-svg-minor-gridline" paint-order="fill stroke markers" d=" M 182.5 216.5 L 399.5 433.5"/><path fill="none" stroke="" class="dcg-svg-minor-gridline" paint-order="fill stroke markers" d=" M 182.5 216.5 L 448.5 369.5"/><path fill="none" stroke="" class="dcg-svg-minor-gridline" paint-order="fill stroke markers" d=" M 182.5 216.5 L 478.5 295.5"/><path fill="none" stroke="" class="dcg-svg-major-gridline" d=""/><g transform="scale(1,1.000000533108994)"><path fill="none" stroke="" d=" M 325.9744410604109 216.49988458196432 L 325.9744410604109 216.49988458196432 A 143.47444106041092 143.47444106041092 0 1 1 325.97436932319636 216.35641016481623"/><g transform="scale(1,0.9999994668912902)" stroke=""><path fill="none" stroke="" class="dcg-svg-major-gridline" d=""/><g transform="scale(1,1.000000533108994)"><path fill="none" stroke="" d=" M 469.847156023174 216.49988458196432 L 469.847156023174 216.49988458196432 A 287.347156023174 287.347156023174 0 1 1 469.847012349608 216.21253747383219"/><g transform="scale(1,0.9999994668912902)" stroke=""/></g></g></g></g></g></g></g></g></g></g></g></g></g></g></g></g></g></g></g></g></g></g></g></g></g><g id="axis-a7accea0"><g id="yaxis-a7accea0"><title>Y axis</title><g><path fill="none" stroke="rgb(0,0,0)" class="dcg-svg-axis-line" paint-order="fill stroke markers" d=" M 182 0 L 182 400" stroke-opacity="0.9" stroke-miterlimit="10" stroke-width="1.5" stroke-dasharray=""/></g></g><g id="xaxis-a7accea0"><title>X axis</title><g><path fill="none" stroke="rgb(0,0,0)" class="dcg-svg-axis-line" paint-order="fill stroke markers" d=" M 0 216 L 400 216" stroke-opacity="0.9" stroke-miterlimit="10" stroke-width="1.5" stroke-dasharray=""/></g></g><g><g class="dcg-svg-axis-value"><text fill="none" stroke="#ffffff" font-family="Arial" font-size="14px" font-style="normal" font-weight="normal" text-decoration="normal" x="325.9744410604109" y="230.20362297541095" text-anchor="middle" stroke-miterlimit="2" stroke-width="3" stroke-dasharray="">5</text><text fill="#000000" stroke="none" font-family="Arial" font-size="14px" font-style="normal" font-weight="normal" text-decoration="normal" x="325.9744410604109" y="230.20362297541095" text-anchor="middle">5</text></g><g class="dcg-svg-axis-value"><text fill="none" stroke="#ffffff" font-family="Arial" font-size="14px" font-style="normal" font-weight="normal" text-decoration="normal" x="38.22901113488473" y="230.20362297541095" text-anchor="middle" stroke-miterlimit="2" stroke-width="3" stroke-dasharray="">5</text><text fill="#000000" stroke="none" font-family="Arial" font-size="14px" font-style="normal" font-weight="normal" text-decoration="normal" x="38.22901113488473" y="230.20362297541095" text-anchor="middle">5</text></g><g class="dcg-svg-axis-value"><text fill="none" stroke="#ffffff" font-family="Arial" font-size="14px" font-style="normal" font-weight="normal" text-decoration="normal" x="173.20865969139783" y="76.33083131280951" text-anchor="middle" stroke-miterlimit="2" stroke-width="3" stroke-dasharray="">5</text><text fill="#000000" stroke="none" font-family="Arial" font-size="14px" font-style="normal" font-weight="normal" text-decoration="normal" x="173.20865969139783" y="76.33083131280951" text-anchor="middle">5</text></g><g class="dcg-svg-axis-value"><text fill="none" stroke="#ffffff" font-family="Arial" font-size="14px" font-style="normal" font-weight="normal" text-decoration="normal" x="173.20865969139783" y="364.0764146380124" text-anchor="middle" stroke-miterlimit="2" stroke-width="3" stroke-dasharray="">5</text><text fill="#000000" stroke="none" font-family="Arial" font-size="14px" font-style="normal" font-weight="normal" text-decoration="normal" x="173.20865969139783" y="364.0764146380124" text-anchor="middle">5</text></g><g class="dcg-svg-polar-axis-value"><text fill="none" stroke="#ffffff" font-family="Arial" font-size="14px" font-style="normal" font-weight="normal" text-decoration="normal" x="319.12335939551747" y="206.20362297541095" text-anchor="middle" stroke-miterlimit="2" stroke-width="3" stroke-dasharray="">0</text><text fill="rgb(150,150,150)" stroke="none" font-family="Arial" font-size="14px" font-style="normal" font-weight="normal" text-decoration="normal" x="319.12335939551747" y="206.20362297541095" text-anchor="middle" fill-opacity="1">0</text></g><g class="dcg-svg-polar-axis-value"><text fill="none" stroke="#ffffff" font-family="Arial" font-size="14px" font-style="normal" font-weight="normal" text-decoration="normal" x="300.76594140163866" y="151.6927698027436" text-anchor="middle" stroke-miterlimit="2" stroke-width="3" stroke-dasharray="">π/6</text><text fill="rgb(150,150,150)" stroke="none" font-family="Arial" font-size="14px" font-style="normal" font-weight="normal" text-decoration="normal" x="300.76594140163866" y="151.6927698027436" text-anchor="middle" fill-opacity="1">π/6</text></g><g class="dcg-svg-polar-axis-value"><text fill="none" stroke="#ffffff" font-family="Arial" font-size="14px" font-style="normal" font-weight="normal" text-decoration="normal" x="250.61254274658265" y="101.53934441045969" text-anchor="middle" stroke-miterlimit="2" stroke-width="3" stroke-dasharray="">π/3</text><text fill="rgb(150,150,150)" stroke="none" font-family="Arial" font-size="14px" font-style="normal" font-weight="normal" text-decoration="normal" x="250.61254274658265" y="101.53934441045969" text-anchor="middle" fill-opacity="1">π/3</text></g><g class="dcg-svg-polar-axis-value"><text fill="none" stroke="#ffffff" font-family="Arial" font-size="14px" font-style="normal" font-weight="normal" text-decoration="normal" x="193.92672304589001" y="83.18191663007626" text-anchor="middle" stroke-miterlimit="2" stroke-width="3" stroke-dasharray="">π/2</text><text fill="rgb(150,150,150)" stroke="none" font-family="Arial" font-size="14px" font-style="normal" font-weight="normal" text-decoration="normal" x="193.92672304589001" y="83.18191663007626" text-anchor="middle" fill-opacity="1">π/2</text></g><g class="dcg-svg-polar-axis-value"><text fill="none" stroke="#ffffff" font-family="Arial" font-size="14px" font-style="normal" font-weight="normal" text-decoration="normal" x="113.59090944871303" y="101.53934441045969" text-anchor="middle" stroke-miterlimit="2" stroke-width="3" stroke-dasharray="">2π/3</text><text fill="rgb(150,150,150)" stroke="none" font-family="Arial" font-size="14px" font-style="normal" font-weight="normal" text-decoration="normal" x="113.59090944871303" y="101.53934441045969" text-anchor="middle" fill-opacity="1">2π/3</text></g><g class="dcg-svg-polar-axis-value"><text fill="none" stroke="#ffffff" font-family="Arial" font-size="14px" font-style="normal" font-weight="normal" text-decoration="normal" x="63.437510793657" y="151.6927698027436" text-anchor="middle" stroke-miterlimit="2" stroke-width="3" stroke-dasharray="">5π/6</text><text fill="rgb(150,150,150)" stroke="none" font-family="Arial" font-size="14px" font-style="normal" font-weight="normal" text-decoration="normal" x="63.437510793657" y="151.6927698027436" text-anchor="middle" fill-opacity="1">5π/6</text></g><g class="dcg-svg-polar-axis-value"><text fill="none" stroke="#ffffff" font-family="Arial" font-size="14px" font-style="normal" font-weight="normal" text-decoration="normal" x="45.080092799778214" y="206.20362297541092" text-anchor="middle" stroke-miterlimit="2" stroke-width="3" stroke-dasharray="">π</text><text fill="rgb(150,150,150)" stroke="none" font-family="Arial" font-size="14px" font-style="normal" font-weight="normal" text-decoration="normal" x="45.080092799778214" y="206.20362297541092" text-anchor="middle" fill-opacity="1">π</text></g><g class="dcg-svg-polar-axis-value"><text fill="none" stroke="#ffffff" font-family="Arial" font-size="14px" font-style="normal" font-weight="normal" text-decoration="normal" x="63.437510793657" y="288.71447614807835" text-anchor="middle" stroke-miterlimit="2" stroke-width="3" stroke-dasharray="">7π/6</text><text fill="rgb(150,150,150)" stroke="none" font-family="Arial" font-size="14px" font-style="normal" font-weight="normal" text-decoration="normal" x="63.437510793657" y="288.71447614807835" text-anchor="middle" fill-opacity="1">7π/6</text></g><g class="dcg-svg-polar-axis-value"><text fill="none" stroke="#ffffff" font-family="Arial" font-size="14px" font-style="normal" font-weight="normal" text-decoration="normal" x="113.59090944871295" y="338.86790154036214" text-anchor="middle" stroke-miterlimit="2" stroke-width="3" stroke-dasharray="">4π/3</text><text fill="rgb(150,150,150)" stroke="none" font-family="Arial" font-size="14px" font-style="normal" font-weight="normal" text-decoration="normal" x="113.59090944871295" y="338.86790154036214" text-anchor="middle" fill-opacity="1">4π/3</text></g><g class="dcg-svg-polar-axis-value"><text fill="none" stroke="#ffffff" font-family="Arial" font-size="14px" font-style="normal" font-weight="normal" text-decoration="normal" x="196.92672304589" y="357.2253293207457" text-anchor="middle" stroke-miterlimit="2" stroke-width="3" stroke-dasharray="">3π/2</text><text fill="rgb(150,150,150)" stroke="none" font-family="Arial" font-size="14px" font-style="normal" font-weight="normal" text-decoration="normal" x="196.92672304589" y="357.2253293207457" text-anchor="middle" fill-opacity="1">3π/2</text></g><g class="dcg-svg-polar-axis-value"><text fill="none" stroke="#ffffff" font-family="Arial" font-size="14px" font-style="normal" font-weight="normal" text-decoration="normal" x="250.61254274658265" y="338.86790154036225" text-anchor="middle" stroke-miterlimit="2" stroke-width="3" stroke-dasharray="">5π/3</text><text fill="rgb(150,150,150)" stroke="none" font-family="Arial" font-size="14px" font-style="normal" font-weight="normal" text-decoration="normal" x="250.61254274658265" y="338.86790154036225" text-anchor="middle" fill-opacity="1">5π/3</text></g><g class="dcg-svg-polar-axis-value"><text fill="none" stroke="#ffffff" font-family="Arial" font-size="14px" font-style="normal" font-weight="normal" text-decoration="normal" x="300.7659414016386" y="288.71447614807835" text-anchor="middle" stroke-miterlimit="2" stroke-width="3" stroke-dasharray="">11π/6</text><text fill="rgb(150,150,150)" stroke="none" font-family="Arial" font-size="14px" font-style="normal" font-weight="normal" text-decoration="normal" x="300.7659414016386" y="288.71447614807835" text-anchor="middle" fill-opacity="1">11π/6</text></g></g></g></g><g id="expressions-a7accea0"><g id="sketch-a7accea0"><title>表达式20</title><path fill="#348543" stroke="none" paint-order="stroke fill markers" d="" fill-opacity="0.4"/><g><path fill="none" stroke="#348543" class="dcg-svg-curve" paint-order="fill stroke markers" d=" M 2.842170943040401e-14 217.70246142599893 L 2.842170943040401e-14 217.70246142599893 L 9.375000000000028 208.10817726099043 L 13.378906250000028 203.56049587833692 L 16.69921875000003 199.34377527280918 L 19.53125000000003 195.26620098631247 L 21.97265625000003 191.2483939952509 L 24.12109375000003 187.1864381514543 L 25.97656250000003 183.14915783050986 L 27.73437500000003 178.72707827220177 L 29.296875 174.15756676899318 L 30.76171875000003 169.158510603325 L 32.12890625000003 163.67498848806363 L 33.3984375 157.65300754580426 L 34.57031250000003 151.0440550890355 L 35.64453125000003 143.81232190624038 L 36.62109375000003 135.94547810095304 L 37.59765625000003 126.42848936336955 L 38.47656250000003 115.95402018736749 L 39.35546875000003 102.9785368905582 L 40.13671875000003 88.5075784046798 L 40.91796875000003 70.06378836837789 L 41.60156250000003 49.17335490523732 L 42.28515625000003 21.589140969543962 L 42.78374255206924 -5.5" stroke-linecap="round" stroke-linejoin="round" stroke-miterlimit="10" stroke-width="2.5" stroke-dasharray=""/></g><g><path fill="none" stroke="#348543" class="dcg-svg-curve" paint-order="fill stroke markers" d=" M 50.875252603342794 405.5 L 50.875252603342794 405.5 L 51.26953125000003 388.5792182483831 L 52.05078125000003 363.83747755546165 L 52.83203125000003 345.1404775433324 L 53.71093750000003 328.88343740451256 L 54.58984375000004 316.09564203845576 L 55.56640625000003 304.72757357562017 L 56.54296875000004 295.5054919907235 L 57.617187500000014 287.1639129248528 L 58.78906250000003 279.6519999179505 L 59.960937500000014 273.3752671087424 L 61.230468750000014 267.6261603785135 L 62.59765625 262.3661772957773 L 64.06250000000003 257.5500570310368 L 65.62500000000003 253.13025408950142 L 67.38281250000003 248.83703814019424 L 69.33593750000003 244.71071393979085 L 71.48437500000001 240.76450207973377 L 73.92578125000003 236.8443357444784 L 76.7578125 232.84861415272957 L 80.07812500000001 228.69815196033227 L 84.08203125000001 224.20083008694834 L 89.45312500000003 218.65093373228376 L 100.19531250000003 207.64874150995175 L 104.10156250000001 203.16912787807033 L 107.32421875000001 199.0354648508472 L 110.15625000000003 194.91459014336823 L 112.59765625000003 190.8450383129682 L 114.74609375000003 186.72157709353698 L 116.60156250000001 182.61397618146597 L 118.26171875000001 178.37370086613947 L 119.82421875 173.7464679251089 L 121.28906250000001 168.6766348619434 L 122.65625000000003 163.10628668579963 L 123.92578125 156.97784752427546 L 125.09765625000003 150.23864091269672 L 126.17187500000003 142.84823860290612 L 127.14843750000003 134.78957104845148 L 128.125 125.0136465692692 L 129.00390625000003 114.22002433056406 L 129.88281250000003 100.79927599841336 L 130.6640625 85.76619505570443 L 131.4453125 66.50504856604493 L 132.12890625000003 44.551065621388005 L 132.8125 15.33591351471523 L 133.1711305579094 -5.5" stroke-linecap="round" stroke-linejoin="round" stroke-miterlimit="10" stroke-width="2.5" stroke-dasharray=""/></g><g><path fill="none" stroke="#348543" class="dcg-svg-curve" paint-order="fill stroke markers" d=" M 141.27286248895282 405.5 L 141.27286248895282 405.5 L 141.50390625000003 394.80973504547137 L 142.1875 371.30341058477865 L 142.96875000000003 350.8626394749318 L 143.84765625 333.29256989136405 L 144.72656250000003 319.60268225283653 L 145.70312500000003 307.5280655017797 L 146.6796875 297.7980622566445 L 147.75390625 289.0469310285545 L 148.92578125 281.2064138551255 L 150.09765625000003 274.6841260287959 L 151.36718750000003 268.73314050219653 L 152.73437500000003 263.30764049328087 L 154.19921875 258.3559676686489 L 155.76171875000003 253.8251611978817 L 157.51953125 249.43634222358236 L 159.375 245.42581940450833 L 161.5234375 241.38730365707232 L 163.8671875 237.5392536009288 L 166.60156250000003 233.592210803314 L 169.82421875 229.47677305374563 L 173.63281250000003 225.11785946587764 L 178.61328125000003 219.901261375604 L 191.69921875000003 206.4256344602823 L 195.41015625000003 202.04934285150324 L 198.53515625000003 197.90694070355585 L 201.26953125000003 193.77920482730514 L 203.61328125 189.71859723394027 L 205.6640625 185.62789723864174 L 207.51953125 181.35012249295485 L 209.17968750000003 176.91045234526317 L 210.64453125 172.36590971167672 L 212.01171875 167.43542009142305 L 213.28125 162.0853122497195 L 214.453125 156.29002564901586 L 215.62500000000003 149.41639103260775 L 216.69921875 141.86172549604967 L 217.67578125 133.60378659157024 L 218.65234375000003 123.55778910612459 L 219.53125 112.42972828123933 L 220.41015625 98.53979282060624 L 221.19140625 82.91049932206053 L 221.875 65.6053243174953 L 222.55859375 43.37753928893517 L 223.14453125 18.565750171884787 L 223.57324719154056 -5.5" stroke-linecap="round" stroke-linejoin="round" stroke-miterlimit="10" stroke-width="2.5" stroke-dasharray=""/></g><g><path fill="none" stroke="#348543" class="dcg-svg-curve" paint-order="fill stroke markers" d=" M 231.67176721908945 405.5 L 231.67176721908945 405.5 L 231.93359375 393.5641254225226 L 232.71484375 367.51395757703074 L 233.49609375 347.96708504908554 L 234.37500000000003 331.0673162672084 L 235.25390625 317.8363662638725 L 236.23046875 306.12018886807965 L 237.20703125 296.64724291925864 L 238.28125000000003 288.10296645970936 L 239.453125 280.42812059819937 L 240.625 274.0294422831674 L 241.89453125 268.1799459765995 L 243.26171875 262.8375568503666 L 244.7265625 257.9538773664217 L 246.2890625 253.47869873816538 L 248.046875 249.13775006707633 L 250 244.97116255217875 L 252.14843750000003 240.99158224907882 L 254.58984375 237.0432313407142 L 257.421875 233.02386347063688 L 260.7421875 228.85426067277842 L 264.6484375 224.4476260247655 L 269.921875 218.98028628052316 L 281.25 207.36513279510217 L 285.15625 202.85421252463692 L 288.37890625 198.6803880638878 L 291.2109375 194.50866337609548 L 293.5546875 190.55521047618993 L 295.60546875 186.59006087293216 L 297.4609375 182.46234804105796 L 299.12109375 178.19857133465916 L 300.68359375 173.54251313748492 L 302.1484375 168.43728442033262 L 303.41796875 163.25686520227364 L 304.6875 157.15673847150615 L 305.859375 150.4522078164121 L 306.93359375 143.10409363071528 L 307.91015625 135.09661418807258 L 308.88671875 125.38988706833817 L 309.765625 114.68169817961062 L 310.64453125 101.38037981131617 L 311.42578125 86.49842667669716 L 312.20703125 67.45765283964084 L 312.890625 45.79139724593594 L 313.57421875 17.01934092557488 L 313.9688110757145 -5.5" stroke-linecap="round" stroke-linejoin="round" stroke-miterlimit="10" stroke-width="2.5" stroke-dasharray=""/></g><g><path fill="none" stroke="#348543" class="dcg-svg-curve" paint-order="fill stroke markers" d=" M 322.0702098798268 405.5 L 322.0702098798268 405.5 L 322.36328125 392.3353499258777 L 323.14453125 366.6104634737088 L 323.92578125 347.2740391491112 L 324.8046875 330.5329237992123 L 325.68359375 317.4110786001124 L 326.66015625 305.7804218088774 L 327.63671875 296.3689942015445 L 328.7109375 287.8743481906932 L 329.8828125 280.2393419440308 L 331.0546875 273.8704462508449 L 332.32421875 268.04544341278626 L 333.69140625 262.72314202122266 L 335.15625 257.85591799566936 L 336.71875 253.39421777804424 L 338.4765625 249.0648799073625 L 340.4296875 244.90808075800706 L 342.578125 240.93660871003405 L 345.01953125 236.9951038055175 L 347.8515625 232.9814782074351 L 351.171875 228.81652363874392 L 355.078125 224.41335228183283 L 360.3515625 218.9482382734023 L 371.6796875 207.33019447476295 L 375.5859375 202.81535617522843 L 378.80859375 198.63651235373632 L 381.640625 194.45843117076222 L 383.984375 190.4977177317684 L 386.03515625 186.5240767943029 L 387.890625 182.38623730727522 L 389.55078125 178.1106207937891 L 391.11328125 173.4400316025625 L 392.578125 168.31694693582432 L 393.84765625 163.11635129789846 L 395.1171875 156.98980733601627 L 396.2890625 150.25292268197566 L 397.36328125 142.86535312951892 L 398.33984375 134.81011595985785 L 399.31640625 125.0388310403323 L 400 116.8449753057137" stroke-linecap="round" stroke-linejoin="round" stroke-miterlimit="10" stroke-width="2.5" stroke-dasharray=""/></g></g><g id="sketch-a7accea0"><title>表达式21</title><path fill="#000000" stroke="none" class="dcg-svg-point" paint-order="stroke fill markers" d=" M 95.45383322184085 216.39562297541096 A 3.75 3.75 0 1 1 95.45383134684101 216.39187297603596 Z"/></g><g id="sketch-a7accea0"><title>表达式22</title><path fill="#000000" stroke="none" class="dcg-svg-point" paint-order="stroke fill markers" d=" M 140.65277965974434 216.39562297541096 A 3.75 3.75 0 1 1 140.6527777847445 216.39187297603596 Z"/></g><g id="sketch-a7accea0"><title>表达式23</title><path fill="#c74440" stroke="none" class="dcg-svg-point" paint-order="stroke fill markers" d=" M 276.2496189734548 216.39562297541096 A 3.75 3.75 0 1 1 276.24961709845496 216.39187297603596 Z"/></g><g id="sketch-a7accea0"><title>表达式24</title><path fill="#2d70b3" stroke="none" class="dcg-svg-point" paint-order="stroke fill markers" d=" M 231.0506725355513 216.39562297541096 A 3.75 3.75 0 1 1 231.05067066055148 216.39187297603596 Z"/></g></g><g id="labels-a7accea0"><g transform="rotate(0,0,0) translate(23,186)"><g class="dcg-svg-label"><path fill="none" stroke="#FFF" paint-order="fill stroke markers" d=" M 9.749696601941746 2 L 9.749696601941746 2 A 5.7650182038834945 10.444472446236558 0 0 0 9.749696601941746 21.234375 L 8.804611650485437 21.234375 L 8.804611650485437 21.234375 A 7.08813713592233 10.444472446236558 0 0 1 8.804611650485437 2 Z" stroke-linecap="round" stroke-linejoin="round" stroke-miterlimit="10" stroke-width="3" stroke-dasharray=""/><text fill="none" stroke="#FFF" font-family="Symbola, &quot;Times New Roman&quot;, serif" font-size="17.71px" font-style="normal" font-weight="400" text-decoration="normal" x="11.734375" y="16.727745" text-anchor="start" stroke-linecap="round" stroke-linejoin="round" stroke-miterlimit="2" stroke-width="3" stroke-dasharray="">−</text><text fill="none" stroke="#FFF" font-family="&quot;Times New Roman&quot;, Symbola, serif" font-size="17.71px" font-style="normal" font-weight="400" text-decoration="normal" x="25.5" y="16.727745" text-anchor="start" stroke-linecap="round" stroke-linejoin="round" stroke-miterlimit="2" stroke-width="3" stroke-dasharray="">π</text><text fill="none" stroke="#FFF" font-family="Symbola, &quot;Times New Roman&quot;, serif" font-size="17.71px" font-style="normal" font-weight="400" text-decoration="normal" x="34.4375" y="16.727745" text-anchor="start" stroke-linecap="round" stroke-linejoin="round" stroke-miterlimit="2" stroke-width="3" stroke-dasharray="">,</text><text fill="none" stroke="#FFF" font-family="Symbola, &quot;Times New Roman&quot;, serif" font-size="17.71px" font-style="normal" font-weight="400" text-decoration="normal" x="38.875" y="16.727745" text-anchor="start" stroke-linecap="round" stroke-linejoin="round" stroke-miterlimit="2" stroke-width="3" stroke-dasharray=""> </text><text fill="none" stroke="#FFF" font-family="Symbola, &quot;Times New Roman&quot;, serif" font-size="17.71px" font-style="normal" font-weight="400" text-decoration="normal" x="43.46875" y="16.727745" text-anchor="start" stroke-linecap="round" stroke-linejoin="round" stroke-miterlimit="2" stroke-width="3" stroke-dasharray="">0</text><path fill="none" stroke="#FFF" paint-order="fill stroke markers" d=" M 54.62530339805825 2 L 54.62530339805825 2 A 5.7650182038834945 10.444472446236558 0 0 1 54.62530339805825 21.234375 L 55.570388349514566 21.234375 L 55.57038834951456 21.234375 A 7.08813713592233 10.444472446236558 0 0 0 55.57038834951456 2 Z" stroke-linecap="round" stroke-linejoin="round" stroke-miterlimit="10" stroke-width="3" stroke-dasharray=""/><path fill="rgb(0, 0, 0)" stroke="none" paint-order="stroke fill markers" d=" M 9.749696601941746 2 L 9.749696601941746 2 A 5.7650182038834945 10.444472446236558 0 0 0 9.749696601941746 21.234375 L 8.804611650485437 21.234375 L 8.804611650485437 21.234375 A 7.08813713592233 10.444472446236558 0 0 1 8.804611650485437 2 Z"/><text fill="rgb(0, 0, 0)" stroke="none" font-family="Symbola, &quot;Times New Roman&quot;, serif" font-size="17.71px" font-style="normal" font-weight="400" text-decoration="normal" x="11.734375" y="16.727745" text-anchor="start">−</text><text fill="rgb(0, 0, 0)" stroke="none" font-family="&quot;Times New Roman&quot;, Symbola, serif" font-size="17.71px" font-style="normal" font-weight="400" text-decoration="normal" x="25.5" y="16.727745" text-anchor="start">π</text><text fill="rgb(0, 0, 0)" stroke="none" font-family="Symbola, &quot;Times New Roman&quot;, serif" font-size="17.71px" font-style="normal" font-weight="400" text-decoration="normal" x="34.4375" y="16.727745" text-anchor="start">,</text><text fill="rgb(0, 0, 0)" stroke="none" font-family="Symbola, &quot;Times New Roman&quot;, serif" font-size="17.71px" font-style="normal" font-weight="400" text-decoration="normal" x="38.875" y="16.727745" text-anchor="start"> </text><text fill="rgb(0, 0, 0)" stroke="none" font-family="Symbola, &quot;Times New Roman&quot;, serif" font-size="17.71px" font-style="normal" font-weight="400" text-decoration="normal" x="43.46875" y="16.727745" text-anchor="start">0</text><path fill="rgb(0, 0, 0)" stroke="none" paint-order="stroke fill markers" d=" M 54.62530339805825 2 L 54.62530339805825 2 A 5.7650182038834945 10.444472446236558 0 0 1 54.62530339805825 21.234375 L 55.570388349514566 21.234375 L 55.57038834951456 21.234375 A 7.08813713592233 10.444472446236558 0 0 0 55.57038834951456 2 Z"/></g></g><g transform="rotate(0,0,0) translate(59,221)"><g class="dcg-svg-label"><path fill="none" stroke="#FFF" paint-order="fill stroke markers" d=" M 9.749696601941746 2 L 9.749696601941746 1.9999999999999964 A 5.7650182038834945 20.413810483870968 0 0 0 9.749696601941746 39.59375 L 8.804611650485437 39.59375 L 8.804611650485437 39.59375 A 7.08813713592233 20.413810483870968 0 0 1 8.804611650485437 1.9999999999999964 Z" stroke-linecap="round" stroke-linejoin="round" stroke-miterlimit="10" stroke-width="3" stroke-dasharray=""/><text fill="none" stroke="#FFF" font-family="Symbola, &quot;Times New Roman&quot;, serif" font-size="17.71px" font-style="normal" font-weight="400" text-decoration="normal" x="11.734375" y="25.290245" text-anchor="start" stroke-linecap="round" stroke-linejoin="round" stroke-miterlimit="2" stroke-width="3" stroke-dasharray="">−</text><text fill="none" stroke="#FFF" font-family="&quot;Times New Roman&quot;, Symbola, serif" font-size="15.939px" font-style="normal" font-weight="400" text-decoration="normal" x="30.453125" y="15.131533" text-anchor="start" stroke-linecap="round" stroke-linejoin="round" stroke-miterlimit="2" stroke-width="3" stroke-dasharray="">π</text><path fill="none" stroke="#FFF" paint-order="fill stroke markers" d=" M 28.6875 19.703125 L 40.28125 19.703125 L 40.28125 20.703125 L 28.6875 20.703125 Z" stroke-linecap="round" stroke-linejoin="round" stroke-miterlimit="10" stroke-width="3" stroke-dasharray=""/><text fill="none" stroke="#FFF" font-family="Symbola, &quot;Times New Roman&quot;, serif" font-size="15.939px" font-style="normal" font-weight="400" text-decoration="normal" x="30.421875" y="33.662783" text-anchor="start" stroke-linecap="round" stroke-linejoin="round" stroke-miterlimit="2" stroke-width="3" stroke-dasharray="">2</text><text fill="none" stroke="#FFF" font-family="Symbola, &quot;Times New Roman&quot;, serif" font-size="17.71px" font-style="normal" font-weight="400" text-decoration="normal" x="43.46875" y="25.290245" text-anchor="start" stroke-linecap="round" stroke-linejoin="round" stroke-miterlimit="2" stroke-width="3" stroke-dasharray="">,</text><text fill="none" stroke="#FFF" font-family="Symbola, &quot;Times New Roman&quot;, serif" font-size="17.71px" font-style="normal" font-weight="400" text-decoration="normal" x="47.90625" y="25.290245" text-anchor="start" stroke-linecap="round" stroke-linejoin="round" stroke-miterlimit="2" stroke-width="3" stroke-dasharray=""> </text><text fill="none" stroke="#FFF" font-family="Symbola, &quot;Times New Roman&quot;, serif" font-size="17.71px" font-style="normal" font-weight="400" text-decoration="normal" x="52.5" y="25.290245" text-anchor="start" stroke-linecap="round" stroke-linejoin="round" stroke-miterlimit="2" stroke-width="3" stroke-dasharray="">0</text><path fill="none" stroke="#FFF" paint-order="fill stroke markers" d=" M 63.65655339805825 2 L 63.65655339805825 2 A 5.7650182038834945 20.413810483870968 0 0 1 63.65655339805825 39.59375 L 64.60163834951456 39.59375 L 64.60163834951456 39.59375 A 7.08813713592233 20.413810483870968 0 0 0 64.60163834951456 1.9999999999999964 Z" stroke-linecap="round" stroke-linejoin="round" stroke-miterlimit="10" stroke-width="3" stroke-dasharray=""/><path fill="rgb(0, 0, 0)" stroke="none" paint-order="stroke fill markers" d=" M 9.749696601941746 2 L 9.749696601941746 1.9999999999999964 A 5.7650182038834945 20.413810483870968 0 0 0 9.749696601941746 39.59375 L 8.804611650485437 39.59375 L 8.804611650485437 39.59375 A 7.08813713592233 20.413810483870968 0 0 1 8.804611650485437 1.9999999999999964 Z"/><text fill="rgb(0, 0, 0)" stroke="none" font-family="Symbola, &quot;Times New Roman&quot;, serif" font-size="17.71px" font-style="normal" font-weight="400" text-decoration="normal" x="11.734375" y="25.290245" text-anchor="start">−</text><text fill="rgb(0, 0, 0)" stroke="none" font-family="&quot;Times New Roman&quot;, Symbola, serif" font-size="15.939px" font-style="normal" font-weight="400" text-decoration="normal" x="30.453125" y="15.131533" text-anchor="start">π</text><path fill="rgb(0, 0, 0)" stroke="none" paint-order="stroke fill markers" d=" M 28.6875 19.703125 L 40.28125 19.703125 L 40.28125 20.703125 L 28.6875 20.703125 Z"/><text fill="rgb(0, 0, 0)" stroke="none" font-family="Symbola, &quot;Times New Roman&quot;, serif" font-size="15.939px" font-style="normal" font-weight="400" text-decoration="normal" x="30.421875" y="33.662783" text-anchor="start">2</text><text fill="rgb(0, 0, 0)" stroke="none" font-family="Symbola, &quot;Times New Roman&quot;, serif" font-size="17.71px" font-style="normal" font-weight="400" text-decoration="normal" x="43.46875" y="25.290245" text-anchor="start">,</text><text fill="rgb(0, 0, 0)" stroke="none" font-family="Symbola, &quot;Times New Roman&quot;, serif" font-size="17.71px" font-style="normal" font-weight="400" text-decoration="normal" x="47.90625" y="25.290245" text-anchor="start"> </text><text fill="rgb(0, 0, 0)" stroke="none" font-family="Symbola, &quot;Times New Roman&quot;, serif" font-size="17.71px" font-style="normal" font-weight="400" text-decoration="normal" x="52.5" y="25.290245" text-anchor="start">0</text><path fill="rgb(0, 0, 0)" stroke="none" paint-order="stroke fill markers" d=" M 63.65655339805825 2 L 63.65655339805825 2 A 5.7650182038834945 20.413810483870968 0 0 1 63.65655339805825 39.59375 L 64.60163834951456 39.59375 L 64.60163834951456 39.59375 A 7.08813713592233 20.413810483870968 0 0 0 64.60163834951456 1.9999999999999964 Z"/></g></g><g transform="rotate(0,0,0) translate(277,221)"><g class="dcg-svg-label"><path fill="none" stroke="#FFF" paint-order="fill stroke markers" d=" M 9.749696601941746 2 L 9.749696601941746 2 A 5.7650182038834945 10.444472446236558 0 0 0 9.749696601941746 21.234375 L 8.804611650485437 21.234375 L 8.804611650485437 21.234375 A 7.08813713592233 10.444472446236558 0 0 1 8.804611650485437 2 Z" stroke-linecap="round" stroke-linejoin="round" stroke-miterlimit="10" stroke-width="3" stroke-dasharray=""/><text fill="none" stroke="#FFF" font-family="&quot;Times New Roman&quot;, Symbola, serif" font-size="17.71px" font-style="normal" font-weight="400" text-decoration="normal" x="11.734375" y="16.727745" text-anchor="start" stroke-linecap="round" stroke-linejoin="round" stroke-miterlimit="2" stroke-width="3" stroke-dasharray="">π</text><text fill="none" stroke="#FFF" font-family="Symbola, &quot;Times New Roman&quot;, serif" font-size="17.71px" font-style="normal" font-weight="400" text-decoration="normal" x="20.671875" y="16.727745" text-anchor="start" stroke-linecap="round" stroke-linejoin="round" stroke-miterlimit="2" stroke-width="3" stroke-dasharray="">,</text><text fill="none" stroke="#FFF" font-family="Symbola, &quot;Times New Roman&quot;, serif" font-size="17.71px" font-style="normal" font-weight="400" text-decoration="normal" x="25.109375" y="16.727745" text-anchor="start" stroke-linecap="round" stroke-linejoin="round" stroke-miterlimit="2" stroke-width="3" stroke-dasharray=""> </text><text fill="none" stroke="#FFF" font-family="Symbola, &quot;Times New Roman&quot;, serif" font-size="17.71px" font-style="normal" font-weight="400" text-decoration="normal" x="29.703125" y="16.727745" text-anchor="start" stroke-linecap="round" stroke-linejoin="round" stroke-miterlimit="2" stroke-width="3" stroke-dasharray="">0</text><path fill="none" stroke="#FFF" paint-order="fill stroke markers" d=" M 40.85967839805825 2 L 40.85967839805825 2 A 5.7650182038834945 10.444472446236558 0 0 1 40.85967839805825 21.234375 L 41.804763349514566 21.234375 L 41.80476334951456 21.234375 A 7.08813713592233 10.444472446236558 0 0 0 41.80476334951456 2 Z" stroke-linecap="round" stroke-linejoin="round" stroke-miterlimit="10" stroke-width="3" stroke-dasharray=""/><path fill="rgb(199, 68, 64)" stroke="none" paint-order="stroke fill markers" d=" M 9.749696601941746 2 L 9.749696601941746 2 A 5.7650182038834945 10.444472446236558 0 0 0 9.749696601941746 21.234375 L 8.804611650485437 21.234375 L 8.804611650485437 21.234375 A 7.08813713592233 10.444472446236558 0 0 1 8.804611650485437 2 Z"/><text fill="rgb(199, 68, 64)" stroke="none" font-family="&quot;Times New Roman&quot;, Symbola, serif" font-size="17.71px" font-style="normal" font-weight="400" text-decoration="normal" x="11.734375" y="16.727745" text-anchor="start">π</text><text fill="rgb(199, 68, 64)" stroke="none" font-family="Symbola, &quot;Times New Roman&quot;, serif" font-size="17.71px" font-style="normal" font-weight="400" text-decoration="normal" x="20.671875" y="16.727745" text-anchor="start">,</text><text fill="rgb(199, 68, 64)" stroke="none" font-family="Symbola, &quot;Times New Roman&quot;, serif" font-size="17.71px" font-style="normal" font-weight="400" text-decoration="normal" x="25.109375" y="16.727745" text-anchor="start"> </text><text fill="rgb(199, 68, 64)" stroke="none" font-family="Symbola, &quot;Times New Roman&quot;, serif" font-size="17.71px" font-style="normal" font-weight="400" text-decoration="normal" x="29.703125" y="16.727745" text-anchor="start">0</text><path fill="rgb(199, 68, 64)" stroke="none" paint-order="stroke fill markers" d=" M 40.85967839805825 2 L 40.85967839805825 2 A 5.7650182038834945 10.444472446236558 0 0 1 40.85967839805825 21.234375 L 41.804763349514566 21.234375 L 41.80476334951456 21.234375 A 7.08813713592233 10.444472446236558 0 0 0 41.80476334951456 2 Z"/></g></g><g transform="rotate(0,0,0) translate(232,167)"><g class="dcg-svg-label"><path fill="none" stroke="#FFF" paint-order="fill stroke markers" d=" M 9.749696601941746 2 L 9.749696601941746 1.9999999999999964 A 5.7650182038834945 20.413810483870968 0 0 0 9.749696601941746 39.59375 L 8.804611650485437 39.59375 L 8.804611650485437 39.59375 A 7.08813713592233 20.413810483870968 0 0 1 8.804611650485437 1.9999999999999964 Z" stroke-linecap="round" stroke-linejoin="round" stroke-miterlimit="10" stroke-width="3" stroke-dasharray=""/><text fill="none" stroke="#FFF" font-family="&quot;Times New Roman&quot;, Symbola, serif" font-size="15.939px" font-style="normal" font-weight="400" text-decoration="normal" x="16.6875" y="15.131533" text-anchor="start" stroke-linecap="round" stroke-linejoin="round" stroke-miterlimit="2" stroke-width="3" stroke-dasharray="">π</text><path fill="none" stroke="#FFF" paint-order="fill stroke markers" d=" M 14.921875 19.703125 L 26.515625 19.703125 L 26.515625 20.703125 L 14.921875 20.703125 Z" stroke-linecap="round" stroke-linejoin="round" stroke-miterlimit="10" stroke-width="3" stroke-dasharray=""/><text fill="none" stroke="#FFF" font-family="Symbola, &quot;Times New Roman&quot;, serif" font-size="15.939px" font-style="normal" font-weight="400" text-decoration="normal" x="16.65625" y="33.662783" text-anchor="start" stroke-linecap="round" stroke-linejoin="round" stroke-miterlimit="2" stroke-width="3" stroke-dasharray="">2</text><text fill="none" stroke="#FFF" font-family="Symbola, &quot;Times New Roman&quot;, serif" font-size="17.71px" font-style="normal" font-weight="400" text-decoration="normal" x="29.703125" y="25.290245" text-anchor="start" stroke-linecap="round" stroke-linejoin="round" stroke-miterlimit="2" stroke-width="3" stroke-dasharray="">,</text><text fill="none" stroke="#FFF" font-family="Symbola, &quot;Times New Roman&quot;, serif" font-size="17.71px" font-style="normal" font-weight="400" text-decoration="normal" x="34.140625" y="25.290245" text-anchor="start" stroke-linecap="round" stroke-linejoin="round" stroke-miterlimit="2" stroke-width="3" stroke-dasharray=""> </text><text fill="none" stroke="#FFF" font-family="Symbola, &quot;Times New Roman&quot;, serif" font-size="17.71px" font-style="normal" font-weight="400" text-decoration="normal" x="38.734375" y="25.290245" text-anchor="start" stroke-linecap="round" stroke-linejoin="round" stroke-miterlimit="2" stroke-width="3" stroke-dasharray="">0</text><path fill="none" stroke="#FFF" paint-order="fill stroke markers" d=" M 49.89092839805825 2 L 49.89092839805825 2 A 5.7650182038834945 20.413810483870968 0 0 1 49.89092839805825 39.59375 L 50.836013349514566 39.59375 L 50.83601334951456 39.59375 A 7.08813713592233 20.413810483870968 0 0 0 50.83601334951456 1.9999999999999964 Z" stroke-linecap="round" stroke-linejoin="round" stroke-miterlimit="10" stroke-width="3" stroke-dasharray=""/><path fill="rgb(45, 112, 179)" stroke="none" paint-order="stroke fill markers" d=" M 9.749696601941746 2 L 9.749696601941746 1.9999999999999964 A 5.7650182038834945 20.413810483870968 0 0 0 9.749696601941746 39.59375 L 8.804611650485437 39.59375 L 8.804611650485437 39.59375 A 7.08813713592233 20.413810483870968 0 0 1 8.804611650485437 1.9999999999999964 Z"/><text fill="rgb(45, 112, 179)" stroke="none" font-family="&quot;Times New Roman&quot;, Symbola, serif" font-size="15.939px" font-style="normal" font-weight="400" text-decoration="normal" x="16.6875" y="15.131533" text-anchor="start">π</text><path fill="rgb(45, 112, 179)" stroke="none" paint-order="stroke fill markers" d=" M 14.921875 19.703125 L 26.515625 19.703125 L 26.515625 20.703125 L 14.921875 20.703125 Z"/><text fill="rgb(45, 112, 179)" stroke="none" font-family="Symbola, &quot;Times New Roman&quot;, serif" font-size="15.939px" font-style="normal" font-weight="400" text-decoration="normal" x="16.65625" y="33.662783" text-anchor="start">2</text><text fill="rgb(45, 112, 179)" stroke="none" font-family="Symbola, &quot;Times New Roman&quot;, serif" font-size="17.71px" font-style="normal" font-weight="400" text-decoration="normal" x="29.703125" y="25.290245" text-anchor="start">,</text><text fill="rgb(45, 112, 179)" stroke="none" font-family="Symbola, &quot;Times New Roman&quot;, serif" font-size="17.71px" font-style="normal" font-weight="400" text-decoration="normal" x="34.140625" y="25.290245" text-anchor="start"> </text><text fill="rgb(45, 112, 179)" stroke="none" font-family="Symbola, &quot;Times New Roman&quot;, serif" font-size="17.71px" font-style="normal" font-weight="400" text-decoration="normal" x="38.734375" y="25.290245" text-anchor="start">0</text><path fill="rgb(45, 112, 179)" stroke="none" paint-order="stroke fill markers" d=" M 49.89092839805825 2 L 49.89092839805825 2 A 5.7650182038834945 20.413810483870968 0 0 1 49.89092839805825 39.59375 L 50.836013349514566 39.59375 L 50.83601334951456 39.59375 A 7.08813713592233 20.413810483870968 0 0 0 50.83601334951456 1.9999999999999964 Z"/></g></g></g><g id="labels-a7accea0"/></g></svg>